<?xml version="1.0" standalone="no"?>
<!DOCTYPE svg PUBLIC "-//W3C//DTD SVG 1.1//EN" "http://www.w3.org/Graphics/SVG/1.1/DTD/svg11.dtd" >
<svg xmlns="http://www.w3.org/2000/svg" xmlns:xlink="http://www.w3.org/1999/xlink" version="1.1">
<metadata>
Created by FontForge 20170731 at Thu Sep  3 00:05:26 2015
 By ,,,
Copyright (c) 2015 by Karel Martens and Jungmyung Lee. All rights reserved.
</metadata>
<defs>
<font id="Jungka-Regular" horiz-adv-x="590" >
  <font-face 
    font-family="Jungka"
    font-weight="400"
    font-stretch="normal"
    units-per-em="1000"
    panose-1="0 0 5 0 0 0 0 0 0 0"
    ascent="750"
    descent="-250"
    x-height="500"
    cap-height="714"
    bbox="-66 -353 1239 1070"
    underline-thickness="50"
    underline-position="-200"
    unicode-range="U+0020-FB02"
  />
<missing-glyph horiz-adv-x="733" 
d="M648 0h-563v714h563v-714zM174 626v-535q109 0 109 96v439h-109zM521 626h-154v-206zM559 245v308l-99 -136zM415 357l-48 -68v-120q0 -54 -33 -79l237 1z" />
    <glyph glyph-name=".notdef" horiz-adv-x="733" 
d="M648 0h-563v714h563v-714zM174 626v-535q109 0 109 96v439h-109zM521 626h-154v-206zM559 245v308l-99 -136zM415 357l-48 -68v-120q0 -54 -33 -79l237 1z" />
    <glyph glyph-name=".null" horiz-adv-x="600" 
 />
    <glyph glyph-name="nonmarkingreturn" horiz-adv-x="333" 
 />
    <glyph glyph-name="space" unicode=" " horiz-adv-x="300" 
 />
    <glyph glyph-name="exclam" unicode="!" horiz-adv-x="301" 
d="M204 540l-17 -309h-72l-18 309v174h107v-174zM75 67q0 -32 21.5 -54t54.5 -22q32 0 53.5 22t21.5 54t-22 54t-53 22q-33 0 -54.5 -22t-21.5 -54z" />
    <glyph glyph-name="quotedbl" unicode="&#x22;" horiz-adv-x="504" 
d="M239 656q0 -6 -2 -18q-5 -20 -19 -48q-42 -85 -156 -166l-17 20q31 28 59 67.5t38 72.5q-24 7 -39 27t-15 46q0 32 21.5 54t54.5 22q31 0 53 -22t22 -54v-1zM449 656q0 -6 -2 -18q-5 -20 -19 -48q-42 -85 -156 -166l-17 20q31 28 59 67.5t38 72.5q-24 7 -39 27t-15 46
q0 32 21.5 54t54.5 22q31 0 53 -22t22 -54v-1z" />
    <glyph glyph-name="numbersign" unicode="#" horiz-adv-x="731" 
d="M542 438l-27 -172h151l-10 -75h-153l-30 -191h-75l30 191h-173l-30 -191h-75l30 191h-145l10 75h147l27 172h-154l10 75h155l30 189h75l-30 -189h173l30 189h75l-30 -189h143l-10 -75h-144zM467 438h-173l-27 -172h173z" />
    <glyph glyph-name="dollar" unicode="$" horiz-adv-x="600" 
d="M556 214q0 -81 -61.5 -133.5t-149.5 -59.5v-92h-75v95q-64 9 -114.5 42.5t-75.5 68.5t-39 74l98 23q39 -94 131 -118v223l-36 13q-63 23 -106.5 66.5t-42.5 106.5q1 72 53.5 121t131.5 57v84h75v-85q74 -12 126.5 -61t68.5 -115l-86 -17q-12 31 -39 59t-70 40v-195
l30 -10q35 -12 62.5 -25t57 -35t45.5 -54t16 -73zM182 529q-1 -35 22 -55.5t66 -35.5v171q-33 -2 -60 -24t-28 -56zM345 318v-208q51 2 85.5 28.5t34.5 69.5q0 71 -120 110z" />
    <glyph glyph-name="percent" unicode="%" horiz-adv-x="867" 
d="M201 734q74 0 125 -57.5t51 -142.5t-51 -142.5t-125 -57.5q-73 0 -123 57.5t-50 142.5t50 142.5t123 57.5zM235 0h-87l487 714h85zM203 664q-40 0 -67.5 -37.5t-27.5 -93.5q0 -55 27.5 -92t67.5 -37t67 37t27 92t-27 93t-67 38zM663 388q74 0 125 -57.5t51 -142.5
t-51 -142.5t-125 -57.5q-73 0 -123 57.5t-50 142.5t50 142.5t123 57.5zM665 318q-40 0 -67.5 -37.5t-27.5 -93.5q0 -55 27.5 -92t67.5 -37t67 37t27 92t-27 93t-67 38z" />
    <glyph glyph-name="ampersand" unicode="&#x26;" horiz-adv-x="756" 
d="M620 0l-98 91q-110 -103 -244 -103q-107 0 -179 56t-72 150q0 138 173 199q-44 46 -63.5 77.5t-19.5 73.5q0 78 57 124.5t140 46.5q85 0 139.5 -49t54.5 -123q0 -57 -42.5 -102.5t-117.5 -74.5l161 -148q45 66 71 150l91 -27q-28 -103 -92 -187l167 -154h-126zM314 639
q-48 0 -78.5 -26.5t-30.5 -68.5q0 -53 81 -123q138 47 138 121q0 42 -31 69.5t-79 27.5zM283 79q94 0 172 75l-194 180q-135 -52 -135 -139q0 -49 40 -82.5t117 -33.5z" />
    <glyph glyph-name="quotesingle" unicode="'" horiz-adv-x="254" 
d="M154 735q32 0 54 -21.5t22 -52.5q0 -36 -18 -72q-46 -90 -150 -163l-27 23q32 29 59.5 67t37.5 70q-24 7 -39 27t-15 46q0 32 21.5 54t54.5 22z" />
    <glyph glyph-name="parenleft" unicode="(" horiz-adv-x="384" 
d="M263 735l56 -58q-64 -70 -110 -175t-46 -227t46 -227t110 -175l-56 -58q-29 29 -57 69.5t-57 98t-46.5 134t-17.5 158.5t17.5 158.5t46.5 134t57 98t57 69.5z" />
    <glyph glyph-name="parenright" unicode=")" horiz-adv-x="384" 
d="M65 677l56 58q29 -29 57 -69.5t57 -98t46.5 -134t17.5 -158.5t-17.5 -158.5t-46.5 -134t-57 -98t-57 -69.5l-56 58q64 70 110 175t46 227t-46 227t-110 175z" />
    <glyph glyph-name="asterisk" unicode="*" horiz-adv-x="369" 
d="M148 711l7 -111l-87 61l-33 -56l95 -45l-95 -45l33 -56l86 61l-5 -112h70l-6 112l87 -61l34 57l-98 44l97 45l-33 57l-87 -61l6 110h-71z" />
    <glyph glyph-name="plus" unicode="+" 
d="M525 244h-193v-193h-74v193h-193v74h193v193h74v-193h193v-74z" />
    <glyph glyph-name="comma" unicode="," horiz-adv-x="284" 
d="M154 143q32 0 54 -21.5t22 -52.5q0 -36 -18 -72q-46 -90 -150 -163l-27 23q32 29 59.5 67t37.5 70q-24 7 -39 27t-15 46q0 32 21.5 54t54.5 22z" />
    <glyph glyph-name="hyphen" unicode="-" horiz-adv-x="541" 
d="M75 213h391v85h-391v-85z" />
    <glyph glyph-name="period" unicode="." horiz-adv-x="261" 
d="M55 67q0 -32 21.5 -54t54.5 -22q32 0 53.5 22t21.5 54t-22 54t-53 22q-33 0 -54.5 -22t-21.5 -54z" />
    <glyph glyph-name="slash" unicode="/" horiz-adv-x="447" 
d="M432 714l-330 -714h-87l330 714h87z" />
    <glyph glyph-name="zero" unicode="0" horiz-adv-x="682" 
d="M343 716q89 0 157 -50t102 -132t34 -181q0 -158 -77.5 -261.5t-215.5 -103.5q-134 0 -213 105t-79 260q0 153 79 258t213 105zM344 624q-84 0 -134.5 -79t-50.5 -193q0 -115 51.5 -193.5t133.5 -78.5q84 0 134 77.5t50 194.5q0 114 -49.5 193t-134.5 79z" />
    <glyph glyph-name="one" unicode="1" horiz-adv-x="402" 
d="M317 0h-92v567l-134 -136l-66 69l200 204h92v-704z" />
    <glyph glyph-name="two" unicode="2" horiz-adv-x="578" 
d="M46 0h458v91h-308l211 208q56 55 85.5 100.5t30.5 99.5q1 95 -67.5 155t-160.5 60q-89 0 -158.5 -57.5t-91.5 -134.5l98 -18q17 42 57 78.5t94 36.5q56 0 92 -33.5t36 -83.5q0 -38 -26 -73.5t-86 -92.5l-264 -256v-80z" />
    <glyph glyph-name="three" unicode="3" horiz-adv-x="560" 
d="M221 318h60q57 0 96 -32.5t39 -86.5q0 -52 -39.5 -85.5t-95.5 -33.5q-57 0 -96.5 31t-54.5 70l-102 -16q23 -72 88.5 -123.5t163.5 -51.5q101 0 168 59.5t67 149.5q0 116 -118 172q16 11 25.5 19.5t27 28t27 48.5t9.5 65q0 73 -59 128.5t-145 54.5q-79 -1 -138.5 -47
t-77.5 -112l97 -18q11 31 40 57t75 26t78 -29.5t32 -75.5q0 -48 -33 -79.5t-85 -31.5h-49v-87z" />
    <glyph glyph-name="four" unicode="4" horiz-adv-x="628" 
d="M490 225h103v-92h-103v-133h-93v133h-332v85l332 486h93v-479zM186 225h211v316z" />
    <glyph glyph-name="five" unicode="5" horiz-adv-x="571" 
d="M473 606h-274v-187h101q99 -1 162.5 -60.5t63.5 -154.5q0 -90 -68.5 -152t-168.5 -62q-97 0 -163.5 51.5t-90.5 123.5l107 16q13 -40 52 -70.5t98 -30.5q58 0 97.5 34.5t39.5 87.5q0 63 -42 96.5t-111 31.5h-170v371h367v-95z" />
    <glyph glyph-name="six" unicode="6" horiz-adv-x="563" 
d="M446 703l-197 -267q18 6 57 6q82 0 152 -61t70 -157q0 -101 -69.5 -169t-169.5 -68q-103 0 -173.5 68t-70.5 170q0 39 16 82t30.5 65.5t42.5 61.5l193 269h119zM288 355q-62 0 -102 -39t-40 -101q0 -56 41 -96.5t101 -40.5t101 40.5t41 96.5q0 62 -40 101t-102 39z" />
    <glyph glyph-name="seven" unicode="7" horiz-adv-x="517" 
d="M501 610l-357 -610h-110l361 611h-361v92h467v-93z" />
    <glyph glyph-name="eight" unicode="8" horiz-adv-x="592" 
d="M297 714q87 0 148 -54t61 -135q0 -77 -62 -139q44 -23 73.5 -71.5t29.5 -108.5q0 -94 -71.5 -156t-179.5 -62t-179.5 62t-71.5 156q0 59 29.5 107.5t74.5 72.5q-62 62 -62 139q0 81 61.5 135t148.5 54zM296 629q-51 0 -83.5 -32t-32.5 -74q0 -45 32 -75.5t84 -30.5
t84 30.5t32 75.5q0 42 -32.5 74t-83.5 32zM297 344q-66 0 -108.5 -38t-42.5 -96q0 -55 42.5 -93t107.5 -38t107.5 38t42.5 93q0 58 -42 96t-107 38z" />
    <glyph glyph-name="nine" unicode="9" horiz-adv-x="563" 
d="M284 716q103 0 173.5 -68t70.5 -170q0 -39 -16 -82t-30.5 -65.5t-42.5 -61.5l-193 -269h-119l197 267q-18 -6 -57 -6q-82 0 -152 61t-70 157q0 101 69.5 169t169.5 68zM285 625q-60 0 -101 -40.5t-41 -96.5q0 -62 40.5 -101t101.5 -39t101.5 39t40.5 101q0 56 -41 96.5
t-101 40.5z" />
    <glyph glyph-name="colon" unicode=":" horiz-adv-x="301" 
d="M75 439q0 -32 21.5 -54t54.5 -22q32 0 53.5 22t21.5 54t-22 54t-53 22q-33 0 -54.5 -22t-21.5 -54zM75 67q0 -32 21.5 -54t54.5 -22q32 0 53.5 22t21.5 54t-22 54t-53 22q-33 0 -54.5 -22t-21.5 -54z" />
    <glyph glyph-name="semicolon" unicode=";" horiz-adv-x="324" 
d="M174 363q-33 0 -54.5 22t-21.5 54t21.5 54t54.5 22q31 0 53 -22t22 -54t-21.5 -54t-53.5 -22zM174 143q32 0 54 -21.5t22 -52.5q0 -36 -18 -72q-46 -90 -150 -163l-27 23q32 29 59.5 67t37.5 70q-24 7 -39 27t-15 46q0 32 21.5 54t54.5 22z" />
    <glyph glyph-name="less" unicode="&#x3c;" horiz-adv-x="584" 
d="M539 473v92l-454 -204v-87l454 -203v92l-352 155z" />
    <glyph glyph-name="equal" unicode="=" 
d="M65 318h460v74h-460v-74zM65 170h460v74h-460v-74z" />
    <glyph glyph-name="greater" unicode="&#x3e;" horiz-adv-x="584" 
d="M45 163v-92l454 203v87l-454 204v-92l352 -155z" />
    <glyph glyph-name="question" unicode="?" horiz-adv-x="600" 
d="M310 733q92 0 153.5 -52.5t61.5 -135.5q0 -34 -15.5 -63.5t-32 -46t-50.5 -44.5q-8 -7 -12 -10q-5 -4 -26 -20.5t-26 -22t-16 -18t-14.5 -24.5t-3.5 -26v-39h-92v50q0 31 16 58t30 39.5t58 48.5q9 8 28 22t27 21t19 19t15 24.5t4 28.5q0 43 -34 71.5t-89 28.5
q-60 0 -98 -39.5t-45 -83.5l-93 17q18 82 81 139.5t154 57.5zM210 67q0 -32 21.5 -54t54.5 -22q32 0 53.5 22t21.5 54t-22 54t-53 22q-33 0 -54.5 -22t-21.5 -54z" />
    <glyph glyph-name="at" unicode="@" horiz-adv-x="863" 
d="M529 169h11q22 -77 103 -77q80 0 132.5 86t52.5 200q0 153 -111 254.5t-279 101.5q-172 0 -290.5 -107t-118.5 -270q0 -126 56.5 -212.5t158.5 -127.5q72 -29 140 -29v75q-108 7 -187.5 90t-79.5 198q0 132 93.5 216.5t220.5 84.5q131 0 218 -79t87 -203q0 -82 -37 -156
q-21 -43 -46 -43q-36 0 -36 69v167q0 71 -50 120t-130 49q-77 0 -125.5 -38.5t-60.5 -88.5l78 -11q24 63 107 63q41 0 70.5 -25t29.5 -64q-40 -11 -125 -23q-172 -25 -172 -140q0 -63 44 -100.5t114 -37.5q74 0 132 58zM537 346v-43q0 -37 -7 -50q-12 -28 -44.5 -49
t-75.5 -21q-39 0 -61 18t-22 45q0 35 24.5 50t72.5 23q64 12 113 27z" />
    <glyph glyph-name="A" unicode="A" horiz-adv-x="654" 
d="M627 0h-105l-52 153h-286l-53 -153h-104l248 714h101zM217 251h220l-109 321z" />
    <glyph glyph-name="B" unicode="B" horiz-adv-x="619" 
d="M85 0h258q102 0 168 58.5t66 157.5q0 70 -40 115t-82 57l-7 -1q79 47 79 148q0 80 -57 129.5t-145 49.5h-240v-714zM182 620h126q52 0 88 -25t36 -82q0 -55 -36 -81t-87 -26h-127v214zM182 318h166q55 -2 91.5 -29.5t36.5 -80.5q0 -55 -38 -83.5t-95 -30.5h-161v224z" />
    <glyph glyph-name="C" unicode="C" horiz-adv-x="760" 
d="M405 734q98 0 178 -45.5t130 -124.5l-87 -50q-36 59 -94 93t-127 34q-110 0 -186 -81t-76 -200q0 -118 75.5 -198.5t186.5 -80.5q76 0 131.5 34.5t109.5 113.5l84 -49q-50 -86 -134 -139t-191 -53q-155 0 -262.5 107.5t-107.5 264.5q0 158 106.5 266t263.5 108z" />
    <glyph glyph-name="D" unicode="D" horiz-adv-x="671" 
d="M85 714h195q113 0 195.5 -50.5t120.5 -128.5t38 -173q0 -165 -97 -263.5t-264 -98.5h-188v714zM182 619v-528h74q125 0 201 64.5t76 207.5q0 102 -52 168t-138 82q-29 6 -81 6h-80z" />
    <glyph glyph-name="E" unicode="E" horiz-adv-x="597" 
d="M546 617h-364v-211h337v-96h-337v-214h370v-96h-467v714h461v-97z" />
    <glyph glyph-name="F" unicode="F" horiz-adv-x="591" 
d="M182 0v310h337v96h-337v212h364v96h-461v-714h97z" />
    <glyph glyph-name="G" unicode="G" horiz-adv-x="775" 
d="M405 734q98 0 178 -45.5t130 -124.5l-87 -50q-36 59 -94 93t-127 34q-110 0 -186 -81t-76 -200q0 -118 75.5 -198.5t186.5 -80.5q86 0 150.5 58.5t75.5 140.5h-185v90h293q2 -35 0 -67q-4 -77 -46 -148.5t-120 -119t-171 -47.5q-155 0 -261 107.5t-106 264.5
q0 158 106.5 266t263.5 108z" />
    <glyph glyph-name="H" unicode="H" horiz-adv-x="681" 
d="M596 0h-97v310h-317v-310h-97v714h97v-308h317v308h97v-714z" />
    <glyph glyph-name="I" unicode="I" horiz-adv-x="267" 
d="M182 0h-97v714h97v-714z" />
    <glyph glyph-name="J" unicode="J" horiz-adv-x="424" 
d="M339 714v-513q0 -97 -50.5 -155t-140.5 -58q-59 0 -112 23l1 98q49 -18 97 -18q56 0 81.5 30t25.5 104v489h98z" />
    <glyph glyph-name="K" unicode="K" horiz-adv-x="673" 
d="M326 415l330 -415h-125l-270 338l-79 -93v-245h-97v714h97v-310l269 310h128z" />
    <glyph glyph-name="L" unicode="L" horiz-adv-x="575" 
d="M182 93h358v-93h-455v714h97v-621z" />
    <glyph glyph-name="M" unicode="M" horiz-adv-x="859" 
d="M182 0v548h2l208 -408h76l207 413h2v-553h97v714h-127l-212 -437h-2l-222 437h-126v-714h97z" />
    <glyph glyph-name="N" unicode="N" horiz-adv-x="744" 
d="M560 155l-351 559h-124v-714h97v569h2l351 -569h124v714h-97v-559h-2z" />
    <glyph glyph-name="O" unicode="O" horiz-adv-x="810" 
d="M405 734q157 0 263.5 -108t106.5 -266q0 -157 -107.5 -264.5t-262.5 -107.5t-262.5 107.5t-107.5 264.5q0 158 106.5 266t263.5 108zM405 641q-110 0 -186 -81t-76 -200q0 -118 75.5 -198.5t186.5 -80.5t186.5 80.5t75.5 198.5q0 119 -76 200t-186 81z" />
    <glyph glyph-name="P" unicode="P" horiz-adv-x="594" 
d="M85 714h210q113 0 188.5 -61.5t75.5 -179.5q0 -104 -78 -172.5t-186 -68.5h-113v-232h-97v714zM182 617v-290h108q76 0 124.5 37t48.5 112q0 70 -48 105.5t-125 35.5h-108z" />
    <glyph glyph-name="Q" unicode="Q" horiz-adv-x="810" 
d="M405 734q157 0 263.5 -108t106.5 -266q0 -82 -34.5 -154t-92.5 -123l84 -84l-64 -66l-97 93q-79 -38 -166 -38q-155 0 -262.5 107.5t-107.5 264.5q0 158 106.5 266t263.5 108zM405 641q-110 0 -186 -81t-76 -200q0 -118 75.5 -198.5t186.5 -80.5q47 0 92 17l-109 104
l67 71l125 -123q87 81 87 210q0 119 -76 200t-186 81z" />
    <glyph glyph-name="R" unicode="R" horiz-adv-x="628" 
d="M85 714h228q102 0 169 -58t67 -163q0 -68 -40.5 -123.5t-105.5 -80.5l213 -289h-125l-198 272h-111v-272h-97v714zM182 617v-250h125q64 0 105 33.5t41 95.5q0 57 -40.5 89t-105.5 32h-125z" />
    <glyph glyph-name="S" unicode="S" horiz-adv-x="608" 
d="M299 734q98 0 168 -54.5t89 -140.5l-98 -18q-14 49 -54 85t-105 36q-58 0 -96.5 -28.5t-38.5 -76.5q0 -42 34.5 -64t106.5 -44l67 -20q201 -61 201 -203q0 -96 -76 -157t-181 -61q-66 0 -121 20t-89.5 52.5t-55.5 66.5t-30 68l101 23q21 -56 69 -96.5t125 -40.5
q65 0 111 34t46 83q0 48 -39.5 76.5t-112.5 47.5l-83 22q-74 19 -125.5 67t-51.5 119q0 87 69 145.5t170 58.5z" />
    <glyph glyph-name="T" unicode="T" horiz-adv-x="583" 
d="M563 619h-223v-619h-97v619h-223v95h543v-95z" />
    <glyph glyph-name="U" unicode="U" horiz-adv-x="730" 
d="M655 714v-433q0 -137 -82.5 -214.5t-208.5 -77.5q-122 0 -205.5 78t-83.5 214v433h97v-432q0 -83 49.5 -140.5t143.5 -57.5t143.5 56.5t49.5 141.5v432h97z" />
    <glyph glyph-name="V" unicode="V" horiz-adv-x="610" 
d="M354 0h-101l-228 714h103l178 -564l175 564h104z" />
    <glyph glyph-name="W" unicode="W" horiz-adv-x="1011" 
d="M755 0h-101l-149 507l-151 -507h-101l-228 714h103l178 -564l148 502l103 -1l150 -501l175 564h104z" />
    <glyph glyph-name="X" unicode="X" horiz-adv-x="689" 
d="M404 388l260 -388h-119l-200 296l-201 -296h-119l257 385l-217 329h119l161 -246l160 246h118z" />
    <glyph glyph-name="Y" unicode="Y" horiz-adv-x="568" 
d="M330 267v-267h-94v267l-221 446h109l160 -332l162 332h106z" />
    <glyph glyph-name="Z" unicode="Z" horiz-adv-x="601" 
d="M565 620l-403 -528h414v-92h-541v84l412 534h-377v96h495v-94z" />
    <glyph glyph-name="bracketleft" unicode="[" horiz-adv-x="351" 
d="M165 -85v719h121v80h-201v-879h201v80h-121z" />
    <glyph glyph-name="backslash" unicode="\" horiz-adv-x="447" 
d="M432 0h-87l-330 714h87z" />
    <glyph glyph-name="bracketright" unicode="]" horiz-adv-x="351" 
d="M85 -165h201v879h-201v-80h121v-719h-121v-80z" />
    <glyph glyph-name="asciicircum" unicode="^" horiz-adv-x="610" 
d="M467 430h108l-215 284h-111l-214 -284h108l162 221z" />
    <glyph glyph-name="underscore" unicode="_" horiz-adv-x="641" 
d="M75 -100h491v75h-491v-75z" />
    <glyph glyph-name="grave" unicode="`" horiz-adv-x="291" 
d="M256 771h-72l-149 130h135z" />
    <glyph glyph-name="a" unicode="a" horiz-adv-x="519" 
d="M47 371l94 -13q11 29 40.5 49.5t73.5 20.5q50 0 83.5 -29.5t33.5 -76.5l-137 -20q-197 -28 -197 -162q0 -68 50 -110t126 -42q86 0 151 65h7v-53h92v325q0 81 -56 135.5t-151 54.5q-85 0 -141.5 -47t-68.5 -97zM373 245v-39q0 -43 -7 -58q-14 -30 -51.5 -53t-85.5 -23
q-42 0 -67 19.5t-25 49.5q0 39 26.5 56t77.5 27q25 5 77.5 13t54.5 8z" />
    <glyph glyph-name="b" unicode="b" 
d="M177 734v-282q57 63 143 63q98 0 164 -75.5t66 -187.5t-66 -187t-164 -75q-75 0 -143 62v-52h-92v734h92zM316 423q-62 0 -102 -45t-40 -125t40 -125t102 -45q58 0 99 46t41 125t-41 124t-99 45z" />
    <glyph glyph-name="c" unicode="c" horiz-adv-x="554" 
d="M296 515q73 0 131.5 -34.5t92.5 -95.5l-84 -39q-53 84 -139 84q-71 0 -118.5 -51t-47.5 -128q0 -76 47.5 -127t118.5 -51q49 0 88.5 24t62.5 67l81 -36q-33 -64 -95 -102t-138 -38q-110 0 -185.5 76t-75.5 187q0 112 75.5 188t185.5 76z" />
    <glyph glyph-name="d" unicode="d" 
d="M505 0h-92v52q-68 -62 -143 -62q-98 0 -164 75.5t-66 186.5t66 187t164 76q80 0 143 -63v282h92v-734zM274 423q-58 0 -98.5 -45t-40.5 -124t40.5 -125t98.5 -46q62 0 102 45t40 125t-40 125t-102 45z" />
    <glyph glyph-name="e" unicode="e" horiz-adv-x="577" 
d="M293 515q106 0 176.5 -74t70.5 -184q0 -15 -2 -39h-399q-1 -59 45.5 -102.5t114.5 -43.5q87 0 139 78l80 -38q-35 -57 -93 -90.5t-128 -33.5q-115 0 -188.5 73.5t-72.5 189.5q1 112 74 188t183 76zM293 431q-63 0 -106 -37t-50 -98h306q-8 60 -49 97.5t-101 37.5z" />
    <glyph glyph-name="f" unicode="f" horiz-adv-x="388" 
d="M274 733q49 0 96 -18v-79q-44 11 -72 11q-51 0 -71 -26t-20 -73v-48h175v-84h-175v-416h-92v416h-95v84h95v66q0 69 40.5 118t118.5 49z" />
    <glyph glyph-name="g" unicode="g" horiz-adv-x="595" 
d="M418 78v-71q0 -47 -36 -75t-89 -28q-54 0 -87 20.5t-44 51.5l-94 -15q16 -56 73.5 -99t152.5 -43q97 0 156.5 57t59.5 141v483h-92v-48q-67 63 -145 63q-96 0 -162 -75t-66 -175t66 -174.5t162 -74.5q71 0 139 62h6zM140 267q0 68 41 112t98 44q60 0 100.5 -44.5
t40.5 -112.5q0 -71 -40 -113.5t-101 -42.5q-58 0 -98.5 43t-40.5 114z" />
    <glyph glyph-name="h" unicode="h" 
d="M177 734v-275q56 56 144 56q77 0 135.5 -54t58.5 -132v-329h-92v310q0 53 -36.5 86t-86.5 33q-53 0 -88 -31t-35 -73v-325h-92v734h92z" />
    <glyph glyph-name="i" unicode="i" horiz-adv-x="279" 
d="M70 642q0 -30 20 -50t50 -20q29 0 49 20t20 50q0 28 -20.5 48.5t-48.5 20.5q-30 0 -50 -20t-20 -49zM186 0v500h-92v-500h92z" />
    <glyph glyph-name="j" unicode="j" horiz-adv-x="348" 
d="M194 711q28 0 48.5 -20.5t20.5 -48.5q0 -30 -20 -50t-49 -20q-30 0 -50 20t-20 50q0 29 20 49t50 20zM240 500v-513q0 -70 -40.5 -119.5t-118.5 -49.5q-49 0 -96 18v78q44 -11 72 -11q51 0 71 26t20 74v497h92z" />
    <glyph glyph-name="k" unicode="k" horiz-adv-x="576" 
d="M448 0l-201 244l-70 -67v-177h-92v734h92v-432l212 198h124l-202 -194l250 -306h-113z" />
    <glyph glyph-name="l" unicode="l" horiz-adv-x="262" 
d="M177 0h-92v734h92v-734z" />
    <glyph glyph-name="m" unicode="m" horiz-adv-x="938" 
d="M655 515q78 0 138 -54t60 -132v-329h-92v311q0 53 -36.5 85t-86.5 32q-56 0 -89.5 -31t-33.5 -74v-323h-92v310q0 53 -36.5 85.5t-86.5 32.5q-56 0 -89.5 -31.5t-33.5 -73.5v-323h-92v500h92v-41q56 56 144 56q96 0 155 -75q77 75 179 75z" />
    <glyph glyph-name="n" unicode="n" horiz-adv-x="600" 
d="M321 515q77 0 135.5 -54t58.5 -132v-329h-92v310q0 53 -36.5 85.5t-86.5 32.5q-56 0 -89.5 -31.5t-33.5 -73.5v-323h-92v500h92v-41q56 56 144 56z" />
    <glyph glyph-name="o" unicode="o" horiz-adv-x="593" 
d="M296 515q111 0 186.5 -76t75.5 -188q0 -111 -75.5 -187t-186.5 -76q-110 0 -185.5 76t-75.5 187q0 112 75.5 188t185.5 76zM297 430q-71 0 -118.5 -51t-47.5 -128q0 -76 47.5 -127t118.5 -51t118.5 51t47.5 127q0 77 -47.5 128t-118.5 51z" />
    <glyph glyph-name="p" unicode="p" 
d="M320 510q98 0 164 -75.5t66 -186.5t-66 -187t-164 -76q-76 0 -143 63v-230h-92v682h92v-52q64 62 143 62zM316 415q-62 0 -101.5 -44t-39.5 -124t39.5 -125t101.5 -45q58 0 97.5 45t39.5 124t-39.5 124t-97.5 45z" />
    <glyph glyph-name="q" unicode="q" 
d="M270 510q79 0 143 -62v52h92v-682h-92v230q-67 -63 -143 -63q-98 0 -164 76t-66 187t66 186.5t164 75.5zM274 415q-58 0 -97.5 -45t-39.5 -124t39.5 -124t97.5 -45q62 0 101.5 45t39.5 125t-39.5 124t-101.5 44z" />
    <glyph glyph-name="r" unicode="r" horiz-adv-x="369" 
d="M342 515v-110q-14 2 -45 2q-55 0 -85 -34q-35 -37 -35 -106v-267h-92v500h92v-61q60 76 165 76z" />
    <glyph glyph-name="s" unicode="s" horiz-adv-x="464" 
d="M225 515q79 0 133.5 -43t67.5 -96l-86 -19q-31 75 -118 75q-36 0 -60.5 -19t-24.5 -46q0 -7 1.5 -12.5t5.5 -10.5t7.5 -9t11 -8t12 -6t15 -5.5l15 -5t17 -5.5t17.5 -5l56 -17q62 -19 99.5 -50t37.5 -90q0 -68 -57.5 -112t-137.5 -43q-87 1 -145 44t-77 104l90 23
q33 -87 138 -87q40 0 69 18.5t29 45.5q0 31 -22.5 46.5t-70.5 28.5l-60 16q-146 40 -146 138q0 64 53.5 107t129.5 43z" />
    <glyph glyph-name="t" unicode="t" horiz-adv-x="383" 
d="M195 500h149v-84h-149v-242q0 -47 20 -73t71 -26q40 0 72 8v-76q-47 -18 -96 -18q-78 0 -118.5 49t-40.5 118v260h-78v84h78v131h92v-131z" />
    <glyph glyph-name="u" unicode="u" 
d="M505 0h-92v41q-56 -56 -144 -56q-77 0 -135.5 54t-58.5 132v329h92v-310q0 -53 36.5 -86t86.5 -33q53 0 88 33t35 76v320h92v-500z" />
    <glyph glyph-name="v" unicode="v" horiz-adv-x="481" 
d="M299 0h-119l-170 500h100l131 -398l129 398h101z" />
    <glyph glyph-name="w" unicode="w" horiz-adv-x="797" 
d="M615 0h-119l-98 326l-99 -326h-119l-170 500h99l132 -399l109 363l97 -1l110 -362l131 399h99z" />
    <glyph glyph-name="x" unicode="x" horiz-adv-x="464" 
d="M232 194l-123 -194h-105l176 269l-155 231h107l100 -147l100 147h106l-153 -231l175 -269h-104z" />
    <glyph glyph-name="y" unicode="y" horiz-adv-x="506" 
d="M486 500l-184 -532q-24 -74 -58 -112t-93 -38q-44 0 -75 11v78q26 -7 55 -7q41 0 57.5 27t22.5 68l-188 505h107l130 -379l124 379h102z" />
    <glyph glyph-name="z" unicode="z" horiz-adv-x="489" 
d="M444 422l-287 -332h297v-90h-419v76l287 334h-255v90h377v-78z" />
    <glyph glyph-name="braceleft" unicode="{" horiz-adv-x="346" 
d="M85 229v90q73 8 73 89v201q0 53 29 86.5t94 33.5v-66q-51 -10 -51 -71v-211q0 -89 -76 -107q38 -9 57.5 -38t18.5 -69l-5 -210q-1 -60 56 -71v-66q-65 0 -94 33.5t-29 86.5v200q0 81 -73 89z" />
    <glyph glyph-name="bar" unicode="|" horiz-adv-x="225" 
d="M75 -50h75v814h-75v-814z" />
    <glyph glyph-name="braceright" unicode="}" horiz-adv-x="346" 
d="M261 319v-90q-73 -8 -73 -89v-200q0 -53 -29 -86.5t-94 -33.5v66q57 11 56 71l-5 210q-1 40 18.5 69t57.5 38q-76 18 -76 107v211q0 61 -51 71v66q65 0 94 -33.5t29 -86.5v-201q0 -81 73 -89z" />
    <glyph glyph-name="asciitilde" unicode="~" horiz-adv-x="665" 
d="M580 337v-93q-55 55 -136 55q-38 0 -106 -26t-110 -26q-86 0 -143 46v93q63 -50 141 -50q44 0 111.5 26t106.5 26q85 0 136 -51z" />
    <glyph glyph-name="exclamdown" unicode="&#xa1;" horiz-adv-x="301" 
d="M75 465q0 -32 21.5 -54t54.5 -22q31 0 53 22t22 54t-21.5 54t-53.5 22q-33 0 -54.5 -22t-21.5 -54zM97 -182v174l18 309h72l17 -309v-174h-107z" />
    <glyph glyph-name="cent" unicode="&#xa2;" horiz-adv-x="600" 
d="M448 164l81 -36q-30 -58 -83 -94.5t-120 -43.5v-60h-76v62q-94 16 -154.5 88.5t-60.5 170.5q0 99 60.5 171.5t154.5 88.5v62h76v-60q63 -7 113.5 -40.5t80.5 -87.5l-84 -39q-42 69 -110 81v-352q83 14 122 89zM131 251q0 -62 33 -109t86 -62v343q-53 -15 -86 -62
t-33 -110z" />
    <glyph glyph-name="sterling" unicode="&#xa3;" horiz-adv-x="596" 
d="M561 90v-90h-497v88q40 34 55.5 76.5t15.5 104.5v36h-90v76h90v95q0 88 58 141t150 53q85 0 161 -38l-44 -76q-51 24 -104 24q-58 0 -94.5 -31.5t-36.5 -82.5v-85h203v-76h-203v-39q0 -65 -13 -104t-51 -72h400z" />
    <glyph glyph-name="currency" unicode="&#xa4;" horiz-adv-x="531" 
d="M486 505l-52 -51q32 -49 32 -110q0 -63 -34 -116l54 -53l-55 -55l-53 52q-52 -35 -114 -35t-114 33l-50 -48l-55 54l49 49q-37 52 -37 119q0 63 35 115l-46 46l54 53l47 -46q53 34 117 34q63 0 116 -36l51 50zM262 483q-61 0 -102 -41t-41 -100q0 -60 41 -101t102 -41
q59 0 99.5 41t40.5 101q0 59 -40.5 100t-99.5 41z" />
    <glyph glyph-name="yen" unicode="&#xa5;" horiz-adv-x="567" 
d="M429 456h77v-75h-117l-38 -74h155v-76h-176v-231h-94v231h-181v76h160l-38 73h-122v76h83l-123 236h109l160 -311l162 311h106z" />
    <glyph glyph-name="brokenbar" unicode="&#xa6;" horiz-adv-x="225" 
d="M75 444h75v320h-75v-320zM75 -49h75v320h-75v-320z" />
    <glyph glyph-name="section" unicode="&#xa7;" horiz-adv-x="600" 
d="M440 139q99 -49 99 -142q0 -79 -63 -129.5t-151 -50.5q-104 0 -167.5 54t-86.5 120l85 21q52 -118 169 -118q57 0 93.5 26t36.5 70q0 39 -33.5 62.5t-99.5 45.5l-70 24q-152 53 -152 164q0 92 90 152q-85 48 -85 130q0 73 56 119.5t140 46.5q82 0 141.5 -46.5
t77.5 -116.5l-79 -15q-15 39 -50 71t-92 32q-45 0 -76 -23t-31 -62q0 -36 31 -57t90 -40l55 -18q34 -12 58 -23.5t51.5 -31t42 -48.5t14.5 -66q0 -99 -94 -151zM184 294q0 -75 144 -113q44 -1 83 29t39 72q0 44 -43 71t-127 48q-33 -8 -64.5 -36t-31.5 -71z" />
    <glyph glyph-name="dieresis" unicode="&#xa8;" horiz-adv-x="394" 
d="M97 896q27 0 44.5 -18t17.5 -44q0 -27 -17.5 -45t-44.5 -18t-44.5 18t-17.5 45q0 26 17.5 44t44.5 18zM297 896q25 0 43.5 -18t18.5 -44q0 -27 -18 -45t-44 -18q-27 0 -45 18t-18 45q0 26 18 44t45 18z" />
    <glyph glyph-name="copyright" unicode="&#xa9;" horiz-adv-x="848" 
d="M424 690q143 0 241 -98t98 -244q0 -148 -97 -244.5t-242 -96.5t-242 96.5t-97 244.5q0 146 98 244t241 98zM425 649q-125 0 -211 -87t-86 -214q0 -130 85 -215t212 -85t211.5 85t84.5 215q0 127 -85.5 214t-210.5 87zM427 549q109 0 167 -92l-50 -27q-45 65 -117 65
q-60 0 -99.5 -42t-39.5 -106t39.5 -106.5t99.5 -42.5q73 0 129 78l47 -27q-28 -45 -73.5 -74t-102.5 -29q-84 0 -142 58t-58 143q0 86 57.5 144t142.5 58z" />
    <glyph glyph-name="ordfeminine" unicode="&#xaa;" horiz-adv-x="413" 
d="M52 625l71 -10q8 22 30.5 37.5t56.5 15.5q38 0 63.5 -22.5t25.5 -57.5q-8 -1 -47 -7t-58 -9q-149 -21 -149 -123q0 -52 38 -83.5t95 -31.5q66 0 115 49h6v-40h69v247q0 61 -42.5 102.5t-114.5 41.5q-65 0 -108 -36t-51 -73zM299 529v-29q0 -33 -5 -45
q-11 -22 -39.5 -39.5t-64.5 -17.5q-32 0 -51 14.5t-19 37.5q0 29 20.5 42.5t58.5 20.5q19 4 59 10t41 6z" />
    <glyph glyph-name="guillemotleft" unicode="&#xab;" horiz-adv-x="686" 
d="M349 495v93l-264 -206v-88l264 -206v93l-203 157zM601 495v93l-264 -206v-88l264 -206v93l-203 157z" />
    <glyph glyph-name="logicalnot" unicode="&#xac;" 
d="M525 392v-202h-74v128h-386v74h460z" />
    <glyph glyph-name="registered" unicode="&#xae;" horiz-adv-x="848" 
d="M424 690q143 0 241 -98t98 -244q0 -148 -97 -244.5t-242 -96.5t-242 96.5t-97 244.5q0 146 98 244t241 98zM425 649q-125 0 -211 -87t-86 -214q0 -130 85 -215t212 -85t211.5 85t84.5 215q0 127 -85.5 214t-210.5 87zM306 539h120q55 0 92 -31.5t37 -87.5
q0 -37 -21.5 -66.5t-56.5 -43.5l114 -155h-67l-106 146h-60v-146h-52v384zM358 486v-134h67q34 0 56.5 18t22.5 51q0 31 -22 48t-57 17h-67z" />
    <glyph glyph-name="macron" unicode="&#xaf;" horiz-adv-x="350" 
d="M335 772h-320v60h320v-60z" />
    <glyph glyph-name="degree" unicode="&#xb0;" horiz-adv-x="600" 
d="M30 630q0 -45 31 -76t76 -31q44 0 74 31t30 76q0 44 -30 74t-74 30q-45 0 -76 -30t-31 -74zM83 630q0 21 15.5 36t37.5 15t37 -15t15 -36q0 -22 -15 -37.5t-37 -15.5t-37.5 15.5t-15.5 37.5z" />
    <glyph glyph-name="plusminus" unicode="&#xb1;" 
d="M525 453v-74h-193v-193h-74v193h-193v74h193v164h74v-164h193zM65 125h460v-74h-460v74z" />
    <glyph glyph-name="twosuperior" unicode="&#xb2;" horiz-adv-x="408" 
d="M48 287h294v74h-175l112 108q71 67 72 126q1 61 -42.5 100t-101.5 39q-60 0 -103 -40t-55 -92l74 -13q7 25 29.5 47.5t54.5 22.5q29 0 48 -18t19 -44q0 -20 -14.5 -39.5t-49.5 -52.5l-162 -156v-62z" />
    <glyph glyph-name="threesuperior" unicode="&#xb3;" horiz-adv-x="388" 
d="M149 478h43q32 0 53.5 -17.5t21.5 -46.5q0 -28 -21.5 -46t-53.5 -18q-33 0 -56 19.5t-30 42.5l-78 -12q13 -49 55 -85t109 -36q64 0 107.5 39.5t43.5 95.5q0 71 -62 107q44 39 44 95q0 47 -39 83.5t-93 35.5q-52 0 -92 -33t-49 -77l75 -14q4 19 20 36t44 17
q24 0 41 -16.5t17 -40.5q0 -26 -17.5 -42.5t-45.5 -16.5h-37v-70z" />
    <glyph glyph-name="acute" unicode="&#xb4;" horiz-adv-x="291" 
d="M35 800h72l149 130h-135z" />
    <glyph glyph-name="paragraph" unicode="&#xb6;" horiz-adv-x="614" 
d="M494 -182h-82v801h-64v-801h-82v640h-51q-49 0 -82 36t-33 92t33 92t82 36h279v-896z" />
    <glyph glyph-name="periodcentered" unicode="&#xb7;" horiz-adv-x="321" 
d="M161 399q31 0 53 -22t22 -54t-21.5 -54t-53.5 -22q-33 0 -54.5 22t-21.5 54t21.5 54t54.5 22z" />
    <glyph glyph-name="cedilla" unicode="&#xb8;" horiz-adv-x="287" 
d="M192 41l-43 -81q6 3 21 3q52 0 84.5 -27.5t32.5 -69.5q0 -54 -40 -85t-93 -31q-60 0 -100.5 31t-53.5 64l62 20q33 -54 93 -54q32 0 50 14t18 38q0 51 -83 51q-50 0 -86 -3l68 130h70z" />
    <glyph glyph-name="onesuperior" unicode="&#xb9;" horiz-adv-x="298" 
d="M35 593l52 -54l72 73l-1 -325h75v437h-69z" />
    <glyph glyph-name="ordmasculine" unicode="&#xba;" horiz-adv-x="488" 
d="M244 735q84 0 141.5 -58.5t57.5 -143.5q0 -84 -57.5 -142t-141.5 -58t-141.5 58t-57.5 142q0 86 57 144t142 58zM244 670q-54 0 -90 -39t-36 -98q0 -58 36 -96.5t90 -38.5q55 0 91 38.5t36 96.5q0 59 -36 98t-91 39z" />
    <glyph glyph-name="guillemotright" unicode="&#xbb;" horiz-adv-x="686" 
d="M85 181v-93l264 206v88l-264 206v-93l203 -157zM337 181v-93l264 206v88l-264 206v-93l203 -157z" />
    <glyph glyph-name="onequarter" unicode="&#xbc;" horiz-adv-x="813" 
d="M55 593l52 -54l72 73l-1 -325h75v437h-69zM131 -15h85l464 729h-85zM705 149h63v-67h-63v-82h-74v82h-190v62l190 293h74v-288zM529 149h102v154z" />
    <glyph glyph-name="onehalf" unicode="&#xbd;" horiz-adv-x="859" 
d="M55 593l52 -54l72 73l-1 -325h75v437h-69zM131 -15h85l464 729h-85zM501 0h294v74h-175l112 108q71 67 72 126q1 61 -42.5 100t-101.5 39q-60 0 -103 -40t-55 -92l74 -13q7 25 29.5 47.5t54.5 22.5q29 0 48 -18t19 -44q0 -20 -14.5 -39.5t-49.5 -52.5l-162 -156v-62z" />
    <glyph glyph-name="threequarters" unicode="&#xbe;" horiz-adv-x="850" 
d="M176 478h43q32 0 53.5 -17.5t21.5 -46.5q0 -28 -21.5 -46t-53.5 -18q-33 0 -56 19.5t-30 42.5l-78 -12q13 -49 55 -85t109 -36q64 0 107.5 39.5t43.5 95.5q0 71 -62 107q44 39 44 95q0 47 -39 83.5t-93 35.5q-52 0 -92 -33t-49 -77l75 -14q4 19 20 36t44 17
q24 0 41 -16.5t17 -40.5q0 -26 -17.5 -42.5t-45.5 -16.5h-37v-70zM178 -15h85l464 729h-85zM752 149h63v-67h-63v-82h-74v82h-190v62l190 293h74v-288zM576 149h102v154z" />
    <glyph glyph-name="questiondown" unicode="&#xbf;" horiz-adv-x="598" 
d="M390 465q0 32 -21.5 54t-54.5 22q-32 0 -53.5 -22t-21.5 -54t22 -54t53 -22q33 0 54.5 22t21.5 54zM290 -201q-92 0 -153.5 48.5t-61.5 129.5q0 51 28.5 89t85.5 83q6 5 19 15t17.5 13.5t13.5 12t12 12t8.5 11t7 13.5t3 14.5t1.5 17.5v43h92v-50q0 -32 -15 -59.5
t-31.5 -43t-57.5 -48.5q-3 -3 -14.5 -12t-14.5 -11.5t-12.5 -10.5t-12 -11t-9.5 -10.5t-9 -11.5t-6.5 -11t-5.5 -12.5t-2.5 -12.5t-1.5 -14q0 -41 32 -67t86 -26q60 0 98 39.5t45 83.5l91 -17q-18 -81 -81.5 -139t-151.5 -58z" />
    <glyph glyph-name="Agrave" unicode="&#xc0;" horiz-adv-x="670" 
d="M396 772h-72l-149 130h135zM627 0h-105l-52 153h-286l-53 -153h-104l248 714h101zM217 251h220l-109 321z" />
    <glyph glyph-name="Aacute" unicode="&#xc1;" horiz-adv-x="670" 
d="M272 772h72l149 130h-135zM627 0h-105l-52 153h-286l-53 -153h-104l248 714h101zM217 251h220l-109 321z" />
    <glyph glyph-name="Acircumflex" unicode="&#xc2;" horiz-adv-x="654" 
d="M492 772h-105l-60 76l-61 -76h-105l139 130h53zM627 0h-105l-52 153h-286l-53 -153h-104l248 714h101zM217 251h220l-109 321z" />
    <glyph glyph-name="Atilde" unicode="&#xc3;" horiz-adv-x="670" 
d="M159 770h55q14 36 49 36q17 0 64 -20q48 -20 77 -20q44 0 72.5 27.5t35.5 64.5h-50q-9 -20 -21.5 -31.5t-35.5 -11.5q-11 0 -64 21q-45 18 -74 18q-41 0 -70.5 -25t-37.5 -59zM627 0h-105l-52 153h-286l-53 -153h-104l248 714h101zM217 251h220l-109 321z" />
    <glyph glyph-name="Adieresis" unicode="&#xc4;" horiz-adv-x="670" 
d="M235 890q27 0 44.5 -18t17.5 -44q0 -27 -17.5 -45t-44.5 -18t-44.5 18t-17.5 45q0 26 17.5 44t44.5 18zM435 890q25 0 43.5 -18t18.5 -44q0 -27 -18 -45t-44 -18q-27 0 -45 18t-18 45q0 26 18 44t45 18zM627 0h-105l-52 153h-286l-53 -153h-104l248 714h101zM217 251h220
l-109 321z" />
    <glyph glyph-name="Aring" unicode="&#xc5;" horiz-adv-x="670" 
d="M337 961q41 0 69 -28t28 -69q0 -42 -28 -71t-69 -29q-42 0 -71 29t-29 71q0 41 29 69t71 28zM336 915q-22 0 -37.5 -15t-15.5 -36q0 -22 15.5 -37.5t37.5 -15.5t37 15.5t15 37.5q0 21 -15 36t-37 15zM627 0h-105l-52 153h-286l-53 -153h-104l248 714h101zM217 251h220
l-109 321z" />
    <glyph glyph-name="AE" unicode="&#xc6;" horiz-adv-x="849" 
d="M804 92v-92h-468v153h-144l-53 -153h-104l248 714h515v-90h-364v-221h337v-90h-337v-221h370zM336 251v321l-111 -321h111z" />
    <glyph glyph-name="Ccedilla" unicode="&#xc7;" horiz-adv-x="760" 
d="M646 229l84 -49q-45 -77 -117.5 -128t-164.5 -62l-16 -30q6 3 21 3q52 0 84.5 -27.5t32.5 -69.5q0 -54 -40 -85t-93 -31q-60 0 -100.5 31t-53.5 64l62 20q33 -54 93 -54q32 0 50 14t18 38q0 51 -83 51q-50 0 -86 -3l41 78q-146 11 -244.5 116t-98.5 255q0 158 106.5 266
t263.5 108q98 0 178 -45.5t130 -124.5l-87 -50q-36 59 -94 93t-127 34q-110 0 -186 -81t-76 -200q0 -118 75.5 -198.5t186.5 -80.5q76 0 131.5 34.5t109.5 113.5z" />
    <glyph glyph-name="Egrave" unicode="&#xc8;" horiz-adv-x="597" 
d="M396 772h-72l-149 130h135zM546 617h-364v-211h337v-96h-337v-214h370v-96h-467v714h461v-97z" />
    <glyph glyph-name="Eacute" unicode="&#xc9;" horiz-adv-x="597" 
d="M243 771h72l149 130h-135zM546 617h-364v-211h337v-96h-337v-214h370v-96h-467v714h461v-97z" />
    <glyph glyph-name="Ecircumflex" unicode="&#xca;" horiz-adv-x="597" 
d="M481 772h-105l-60 76l-61 -76h-105l139 130h53zM546 617h-364v-211h337v-96h-337v-214h370v-96h-467v714h461v-97z" />
    <glyph glyph-name="Edieresis" unicode="&#xcb;" horiz-adv-x="597" 
d="M227 891q27 0 44.5 -18t17.5 -44q0 -27 -17.5 -45t-44.5 -18t-44.5 18t-17.5 45q0 26 17.5 44t44.5 18zM427 891q25 0 43.5 -18.5t18.5 -43.5q0 -27 -18 -45t-44 -18q-27 0 -45 18t-18 45q0 26 18 44t45 18zM546 617h-364v-211h337v-96h-337v-214h370v-96h-467v714h461
v-97z" />
    <glyph glyph-name="Igrave" unicode="&#xcc;" horiz-adv-x="267" 
d="M-39 901l149 -130h72l-86 130h-135zM81 0h97v714h-97v-714z" />
    <glyph glyph-name="Iacute" unicode="&#xcd;" horiz-adv-x="267" 
d="M85 770h72l149 130h-135zM85 0h97v714h-97v-714z" />
    <glyph glyph-name="Icircumflex" unicode="&#xce;" horiz-adv-x="261" 
d="M296 772h-105l-60 76l-61 -76h-105l139 130h53zM179 0h-97v714h97v-714z" />
    <glyph glyph-name="Idieresis" unicode="&#xcf;" horiz-adv-x="354" 
d="M77 891q27 0 44.5 -18t17.5 -44q0 -27 -17.5 -45t-44.5 -18t-44.5 18t-17.5 45q0 26 17.5 44t44.5 18zM277 891q25 0 43.5 -18.5t18.5 -43.5q0 -27 -18 -45t-44 -18q-27 0 -45 18t-18 45q0 26 18 44t45 18zM225 0h-97v714h97v-714z" />
    <glyph glyph-name="Eth" unicode="&#xd0;" horiz-adv-x="674" 
d="M85 714h195q113 0 195.5 -50.5t120.5 -128.5t38 -173q0 -165 -97 -263.5t-264 -98.5h-188v315h-60v85h60v314zM182 91h74q125 0 201 64.5t76 207.5q0 102 -52 168t-138 82q-29 6 -81 6h-80v-219h164v-85h-164v-224z" />
    <glyph glyph-name="Ntilde" unicode="&#xd1;" horiz-adv-x="744" 
d="M213 769h55q14 36 49 36q17 0 64 -20q48 -20 77 -20q44 0 72.5 27.5t35.5 64.5h-50q-9 -20 -21.5 -31.5t-35.5 -11.5q-11 0 -64 21q-45 18 -74 18q-41 0 -70.5 -25t-37.5 -59zM560 141l-347 573h-128v-714h97v573h2l347 -573h128v714h-97v-573h-2z" />
    <glyph glyph-name="Ograve" unicode="&#xd2;" horiz-adv-x="810" 
d="M478 771h-72l-149 130h135zM405 734q157 0 263.5 -108t106.5 -266q0 -157 -107.5 -264.5t-262.5 -107.5t-262.5 107.5t-107.5 264.5q0 158 106.5 266t263.5 108zM405 641q-110 0 -186 -81t-76 -200q0 -118 75.5 -198.5t186.5 -80.5t186.5 80.5t75.5 198.5q0 119 -76 200
t-186 81z" />
    <glyph glyph-name="Oacute" unicode="&#xd3;" horiz-adv-x="810" 
d="M355 771h72l149 130h-135zM405 734q157 0 263.5 -108t106.5 -266q0 -157 -107.5 -264.5t-262.5 -107.5t-262.5 107.5t-107.5 264.5q0 158 106.5 266t263.5 108zM405 641q-110 0 -186 -81t-76 -200q0 -118 75.5 -198.5t186.5 -80.5t186.5 80.5t75.5 198.5q0 119 -76 200
t-186 81z" />
    <glyph glyph-name="Ocircumflex" unicode="&#xd4;" horiz-adv-x="810" 
d="M570 772h-105l-60 76l-61 -76h-105l139 130h53zM405 734q157 0 263.5 -108t106.5 -266q0 -157 -107.5 -264.5t-262.5 -107.5t-262.5 107.5t-107.5 264.5q0 158 106.5 266t263.5 108zM405 641q-110 0 -186 -81t-76 -200q0 -118 75.5 -198.5t186.5 -80.5t186.5 80.5
t75.5 198.5q0 119 -76 200t-186 81z" />
    <glyph glyph-name="Otilde" unicode="&#xd5;" horiz-adv-x="810" 
d="M229 769h55q14 36 49 36q17 0 64 -20t77 -20q44 0 72.5 27.5t35.5 64.5h-50q-9 -20 -21.5 -31.5t-35.5 -11.5q-11 0 -64 21q-45 18 -74 18q-41 0 -70.5 -25t-37.5 -59zM405 734q157 0 263.5 -108t106.5 -266q0 -157 -107.5 -264.5t-262.5 -107.5t-262.5 107.5
t-107.5 264.5q0 158 106.5 266t263.5 108zM405 641q-110 0 -186 -81t-76 -200q0 -118 75.5 -198.5t186.5 -80.5t186.5 80.5t75.5 198.5q0 119 -76 200t-186 81z" />
    <glyph glyph-name="Odieresis" unicode="&#xd6;" horiz-adv-x="810" 
d="M305 890q27 0 44.5 -18t17.5 -44q0 -27 -17.5 -45t-44.5 -18t-44.5 18t-17.5 45q0 26 17.5 44t44.5 18zM505 890q25 0 43.5 -18t18.5 -44q0 -27 -18 -45t-44 -18q-27 0 -45 18t-18 45q0 26 18 44t45 18zM405 734q157 0 263.5 -108t106.5 -266q0 -157 -107.5 -264.5
t-262.5 -107.5t-262.5 107.5t-107.5 264.5q0 158 106.5 266t263.5 108zM405 641q-110 0 -186 -81t-76 -200q0 -118 75.5 -198.5t186.5 -80.5t186.5 80.5t75.5 198.5q0 119 -76 200t-186 81z" />
    <glyph glyph-name="multiply" unicode="&#xd7;" horiz-adv-x="508" 
d="M307 281l136 -136l-53 -53l-136 136l-136 -136l-53 53l136 136l-136 136l53 53l136 -136l136 136l53 -53z" />
    <glyph glyph-name="Oslash" unicode="&#xd8;" horiz-adv-x="881" 
d="M848 714l-117 -118q80 -102 80 -236q0 -157 -107.5 -264.5t-262.5 -107.5q-132 0 -231 80l-67 -68h-110l121 123q-83 101 -83 237q0 158 106.5 266t263.5 108q134 0 235 -82l62 62h110zM179 360q0 -90 48 -164l379 384q-72 61 -165 61q-110 0 -186 -81t-76 -200zM703 360
q0 91 -45 161l-378 -383q70 -57 161 -57q111 0 186.5 80.5t75.5 198.5z" />
    <glyph glyph-name="Ugrave" unicode="&#xd9;" horiz-adv-x="730" 
d="M436 771h-72l-149 130h135zM655 714v-433q0 -137 -82.5 -214.5t-208.5 -77.5q-122 0 -205.5 78t-83.5 214v433h97v-432q0 -83 49.5 -140.5t143.5 -57.5t143.5 56.5t49.5 141.5v432h97z" />
    <glyph glyph-name="Uacute" unicode="&#xda;" horiz-adv-x="730" 
d="M315 771h72l149 130h-135zM655 714v-433q0 -137 -82.5 -214.5t-208.5 -77.5q-122 0 -205.5 78t-83.5 214v433h97v-432q0 -83 49.5 -140.5t143.5 -57.5t143.5 56.5t49.5 141.5v432h97z" />
    <glyph glyph-name="Ucircumflex" unicode="&#xdb;" horiz-adv-x="730" 
d="M531 771h-105l-60 76l-61 -76h-105l139 130h53zM655 714v-433q0 -137 -82.5 -214.5t-208.5 -77.5q-122 0 -205.5 78t-83.5 214v433h97v-432q0 -83 49.5 -140.5t143.5 -57.5t143.5 56.5t49.5 141.5v432h97z" />
    <glyph glyph-name="Udieresis" unicode="&#xdc;" horiz-adv-x="730" 
d="M265 890q27 0 44.5 -18t17.5 -44q0 -27 -17.5 -45t-44.5 -18t-44.5 18t-17.5 45q0 26 17.5 44t44.5 18zM465 890q25 0 43.5 -18t18.5 -44q0 -27 -18 -45t-44 -18q-27 0 -45 18t-18 45q0 26 18 44t45 18zM655 714v-433q0 -137 -82.5 -214.5t-208.5 -77.5q-122 0 -205.5 78
t-83.5 214v433h97v-432q0 -83 49.5 -140.5t143.5 -57.5t143.5 56.5t49.5 141.5v432h97z" />
    <glyph glyph-name="Yacute" unicode="&#xdd;" horiz-adv-x="567" 
d="M233 771h72l149 130h-135zM330 267v-267h-94v267l-221 446h109l160 -332l162 332h106z" />
    <glyph glyph-name="Thorn" unicode="&#xde;" horiz-adv-x="578" 
d="M172 610h133q101 0 169.5 -54.5t68.5 -156.5q0 -111 -67 -162.5t-171 -51.5h-133v-185h-97v714h97v-104zM172 515v-236h126q65 0 106.5 29.5t41.5 90.5q0 58 -42 87t-106 29h-126z" />
    <glyph glyph-name="germandbls" unicode="&#xdf;" horiz-adv-x="600" 
d="M300 80q56 0 95.5 33.5t39.5 85.5q0 53 -38 86t-93 33h-49v87h34q52 0 85 32.5t33 78.5t-30 75.5t-75 29.5q-47 0 -77.5 -35.5t-30.5 -86.5v-499h-97v500q1 98 56 156t145 59q86 1 145 -55.5t59 -131.5q0 -35 -8.5 -63t-25 -47t-26.5 -28t-26 -19q118 -56 118 -172
q0 -90 -67 -149.5t-168 -59.5q-24 0 -49 5v89q14 -4 50 -4z" />
    <glyph glyph-name="agrave" unicode="&#xe0;" horiz-adv-x="519" 
d="M328 579h-72l-149 130h135zM47 371l94 -13q11 29 40.5 49.5t73.5 20.5q50 0 83.5 -29.5t33.5 -76.5l-137 -20q-197 -28 -197 -162q0 -68 50 -110t126 -42q86 0 151 65h7v-53h92v325q0 81 -56 135.5t-151 54.5q-85 0 -141.5 -47t-68.5 -97zM373 245v-39q0 -43 -7 -58
q-14 -30 -51.5 -53t-85.5 -23q-42 0 -67 19.5t-25 49.5q0 39 26.5 56t77.5 27q25 5 77.5 13t54.5 8z" />
    <glyph glyph-name="aacute" unicode="&#xe1;" horiz-adv-x="519" 
d="M209 577h72l149 130h-135zM47 371l94 -13q11 29 40.5 49.5t73.5 20.5q50 0 83.5 -29.5t33.5 -76.5l-137 -20q-197 -28 -197 -162q0 -68 50 -110t126 -42q86 0 151 65h7v-53h92v325q0 81 -56 135.5t-151 54.5q-85 0 -141.5 -47t-68.5 -97zM373 245v-39q0 -43 -7 -58
q-14 -30 -51.5 -53t-85.5 -23q-42 0 -67 19.5t-25 49.5q0 39 26.5 56t77.5 27q25 5 77.5 13t54.5 8z" />
    <glyph glyph-name="acircumflex" unicode="&#xe2;" horiz-adv-x="519" 
d="M423 578h-105l-60 76l-61 -76h-105l139 130h53zM47 371l94 -13q11 29 40.5 49.5t73.5 20.5q50 0 83.5 -29.5t33.5 -76.5l-137 -20q-197 -28 -197 -162q0 -68 50 -110t126 -42q86 0 151 65h7v-53h92v325q0 81 -56 135.5t-151 54.5q-85 0 -141.5 -47t-68.5 -97zM373 245
v-39q0 -43 -7 -58q-14 -30 -51.5 -53t-85.5 -23q-42 0 -67 19.5t-25 49.5q0 39 26.5 56t77.5 27q25 5 77.5 13t54.5 8z" />
    <glyph glyph-name="atilde" unicode="&#xe3;" horiz-adv-x="519" 
d="M81 562h55q14 36 49 36q17 0 64 -20q48 -20 77 -20q44 0 72.5 27.5t35.5 64.5h-50q-9 -20 -21.5 -31.5t-35.5 -11.5q-11 0 -64 21q-45 18 -74 18q-41 0 -70.5 -25t-37.5 -59zM47 371l94 -13q11 29 40.5 49.5t73.5 20.5q50 0 83.5 -29.5t33.5 -76.5l-137 -20
q-197 -28 -197 -162q0 -68 50 -110t126 -42q86 0 151 65h7v-53h92v325q0 81 -56 135.5t-151 54.5q-85 0 -141.5 -47t-68.5 -97zM373 245v-39q0 -43 -7 -58q-14 -30 -51.5 -53t-85.5 -23q-42 0 -67 19.5t-25 49.5q0 39 26.5 56t77.5 27q25 5 77.5 13t54.5 8z" />
    <glyph glyph-name="adieresis" unicode="&#xe4;" horiz-adv-x="519" 
d="M158 684q27 0 44.5 -18t17.5 -44q0 -27 -17.5 -45t-44.5 -18t-44.5 18t-17.5 45q0 26 17.5 44t44.5 18zM358 684q26 0 44 -18t18 -44q0 -27 -18 -45t-44 -18q-27 0 -45 18t-18 45q0 26 18 44t45 18zM47 371l94 -13q11 29 40.5 49.5t73.5 20.5q50 0 83.5 -29.5t33.5 -76.5
l-137 -20q-197 -28 -197 -162q0 -68 50 -110t126 -42q86 0 151 65h7v-53h92v325q0 81 -56 135.5t-151 54.5q-85 0 -141.5 -47t-68.5 -97zM373 245v-39q0 -43 -7 -58q-14 -30 -51.5 -53t-85.5 -23q-42 0 -67 19.5t-25 49.5q0 39 26.5 56t77.5 27q25 5 77.5 13t54.5 8z" />
    <glyph glyph-name="aring" unicode="&#xe5;" horiz-adv-x="519" 
d="M262 755q41 0 69 -28t28 -69q0 -42 -28 -71t-69 -29q-42 0 -71 29t-29 71q0 41 29 69t71 28zM261 709q-22 0 -37.5 -15t-15.5 -36q0 -22 15 -37.5t38 -15.5q22 0 37 15.5t15 37.5q0 21 -15 36t-37 15zM47 371l94 -13q11 29 40.5 49.5t73.5 20.5q50 0 83.5 -29.5
t33.5 -76.5l-137 -20q-197 -28 -197 -162q0 -68 50 -110t126 -42q86 0 151 65h7v-53h92v325q0 81 -56 135.5t-151 54.5q-85 0 -141.5 -47t-68.5 -97zM373 245v-39q0 -43 -7 -58q-14 -30 -51.5 -53t-85.5 -23q-42 0 -67 19.5t-25 49.5q0 39 26.5 56t77.5 27q25 5 77.5 13
t54.5 8z" />
    <glyph glyph-name="ae" unicode="&#xe6;" horiz-adv-x="914" 
d="M629 515q106 0 176.5 -74t70.5 -184q0 -15 -2 -39h-402q1 -61 47 -103.5t116 -42.5q87 0 139 78l80 -38q-35 -58 -92.5 -91t-127.5 -33q-123 0 -202 91q-80 -91 -210 -91q-77 0 -128 42t-51 112q0 130 200 161q23 3 73.5 10t63.5 9q0 48 -32.5 78t-80.5 30t-79.5 -20.5
t-41.5 -51.5l-91 13q14 55 69 99.5t143 44.5q111 0 171 -84q76 84 191 84zM629 431q-63 0 -106.5 -36.5t-50.5 -98.5h309q-7 60 -49.5 97.5t-102.5 37.5zM381 206v39q-6 -1 -32 -5t-51 -8t-44 -8q-55 -11 -83 -27.5t-28 -55.5q0 -31 25 -51.5t69 -20.5q49 0 86 24t51 55
q7 15 7 58z" />
    <glyph glyph-name="ccedilla" unicode="&#xe7;" horiz-adv-x="554" 
d="M448 164l81 -36q-28 -55 -79 -91.5t-115 -45.5l-16 -31q6 3 21 3q52 0 84.5 -27.5t32.5 -69.5q0 -54 -40 -85t-93 -31q-60 0 -100.5 31t-53.5 64l62 20q33 -54 93 -54q32 0 50 14t18 38q0 51 -83 51q-50 0 -86 -3l41 79q-99 11 -164.5 85t-65.5 176q0 112 75.5 188
t185.5 76q73 0 131.5 -34.5t92.5 -95.5l-84 -39q-53 84 -139 84q-71 0 -118.5 -51t-47.5 -128q0 -76 47.5 -127t118.5 -51q49 0 88.5 24t62.5 67z" />
    <glyph glyph-name="egrave" unicode="&#xe8;" horiz-adv-x="577" 
d="M363 578h-72l-149 130h135zM293 515q106 0 176.5 -74t70.5 -184q0 -15 -2 -39h-399q-1 -59 45.5 -102.5t114.5 -43.5q87 0 139 78l80 -38q-35 -57 -93 -90.5t-128 -33.5q-115 0 -188.5 73.5t-72.5 189.5q1 112 74 188t183 76zM293 431q-63 0 -106 -37t-50 -98h306
q-8 60 -49 97.5t-101 37.5z" />
    <glyph glyph-name="eacute" unicode="&#xe9;" horiz-adv-x="577" 
d="M224 578h72l149 130h-135zM293 515q106 0 176.5 -74t70.5 -184q0 -15 -2 -39h-399q-1 -59 45.5 -102.5t114.5 -43.5q87 0 139 78l80 -38q-35 -57 -93 -90.5t-128 -33.5q-115 0 -188.5 73.5t-72.5 189.5q1 112 74 188t183 76zM293 431q-63 0 -106 -37t-50 -98h306
q-8 60 -49 97.5t-101 37.5z" />
    <glyph glyph-name="ecircumflex" unicode="&#xea;" horiz-adv-x="577" 
d="M457 578h-105l-60 76l-61 -76h-105l139 130h53zM293 515q106 0 176.5 -74t70.5 -184q0 -15 -2 -39h-399q-1 -59 45.5 -102.5t114.5 -43.5q87 0 139 78l80 -38q-35 -57 -93 -90.5t-128 -33.5q-115 0 -188.5 73.5t-72.5 189.5q1 112 74 188t183 76zM293 431q-63 0 -106 -37
t-50 -98h306q-8 60 -49 97.5t-101 37.5z" />
    <glyph glyph-name="edieresis" unicode="&#xeb;" horiz-adv-x="577" 
d="M199 684q27 0 44.5 -18t17.5 -44q0 -27 -17.5 -45t-44.5 -18t-44.5 18t-17.5 45q0 26 17.5 44t44.5 18zM399 684q25 0 43.5 -18t18.5 -44q0 -27 -18 -45t-44 -18q-27 0 -45 18t-18 45q0 26 18 44t45 18zM293 515q106 0 176.5 -74t70.5 -184q0 -15 -2 -39h-399
q-1 -59 45.5 -102.5t114.5 -43.5q87 0 139 78l80 -38q-35 -57 -93 -90.5t-128 -33.5q-115 0 -188.5 73.5t-72.5 189.5q1 112 74 188t183 76zM293 431q-63 0 -106 -37t-50 -98h306q-8 60 -49 97.5t-101 37.5z" />
    <glyph glyph-name="igrave" unicode="&#xec;" horiz-adv-x="227" 
d="M-55 708l149 -130h72l-86 130h-135zM157 0v500h-92v-500h92z" />
    <glyph glyph-name="iacute" unicode="&#xed;" horiz-adv-x="257" 
d="M61 578h72l149 130h-135zM157 0v500h-92v-500h92z" />
    <glyph glyph-name="icircumflex" unicode="&#xee;" horiz-adv-x="281" 
d="M306 578h-105l-60 76l-61 -76h-105l139 130h53zM187 0h-92v500h92v-500z" />
    <glyph glyph-name="idieresis" unicode="&#xef;" horiz-adv-x="274" 
d="M37 682q27 0 44.5 -18t17.5 -44q0 -27 -17.5 -45t-44.5 -18t-44.5 18t-17.5 45q0 26 17.5 44t44.5 18zM237 682q25 0 43.5 -18t18.5 -44q0 -27 -18 -45t-44 -18q-27 0 -45 18t-18 45q0 26 18 44t45 18zM183 0v500h-92v-500h92z" />
    <glyph glyph-name="eth" unicode="&#xf0;" horiz-adv-x="606" 
d="M514 650l-71 -29q128 -136 128 -318q0 -137 -73 -226t-194 -89q-115 0 -189.5 75t-74.5 190t72.5 188.5t186.5 73.5q25 0 65 -9.5t62 -25.5q-21 57 -71 105l-155 -63l-25 67l117 47q-39 27 -88 48l68 58q67 -33 112 -68l105 42zM304 70q72 0 114 54.5t40 130.5
q-2 75 -46 127t-115 52q-68 0 -111 -51t-43 -127q0 -79 46 -132.5t115 -53.5z" />
    <glyph glyph-name="ntilde" unicode="&#xf1;" horiz-adv-x="600" 
d="M140 562h55q14 36 49 36q17 0 64 -20q48 -20 77 -20q44 0 72.5 27.5t35.5 64.5h-50q-9 -20 -21.5 -31.5t-35.5 -11.5q-12 0 -64 21q-45 18 -74 18q-41 0 -70.5 -25t-37.5 -59zM321 515q77 0 135.5 -54t58.5 -132v-329h-92v310q0 53 -36.5 85.5t-86.5 32.5
q-56 0 -89.5 -31.5t-33.5 -73.5v-323h-92v500h92v-41q56 56 144 56z" />
    <glyph glyph-name="ograve" unicode="&#xf2;" horiz-adv-x="593" 
d="M143 708l149 -130h72l-86 130h-135zM296 515q111 0 186.5 -76t75.5 -188q0 -111 -75.5 -187t-186.5 -76q-110 0 -185.5 76t-75.5 187q0 112 75.5 188t185.5 76zM297 72q71 0 119.5 51.5t48.5 127.5t-48.5 128t-119.5 52t-119.5 -52t-48.5 -128t48.5 -127.5t119.5 -51.5z
" />
    <glyph glyph-name="oacute" unicode="&#xf3;" horiz-adv-x="593" 
d="M323 578h-72l86 130h135zM296 515q111 0 186.5 -76t75.5 -188q0 -111 -75.5 -187t-186.5 -76q-110 0 -185.5 76t-75.5 187q0 112 75.5 188t185.5 76zM297 431q-71 0 -119.5 -52t-48.5 -128t48.5 -127.5t119.5 -51.5t119.5 51.5t48.5 127.5t-48.5 128t-119.5 52z" />
    <glyph glyph-name="ocircumflex" unicode="&#xf4;" horiz-adv-x="593" 
d="M462 578h-105l-60 76l-61 -76h-105l139 130h53zM296 515q111 0 186.5 -76t75.5 -188q0 -111 -75.5 -187t-186.5 -76q-110 0 -185.5 76t-75.5 187q0 112 75.5 188t185.5 76zM297 431q-71 0 -119.5 -52t-48.5 -128t48.5 -127.5t119.5 -51.5t119.5 51.5t48.5 127.5
t-48.5 128t-119.5 52z" />
    <glyph glyph-name="otilde" unicode="&#xf5;" horiz-adv-x="593" 
d="M120 562h55q14 36 49 36q17 0 64 -20q48 -20 77 -20q44 0 72.5 27.5t35.5 64.5h-50q-9 -20 -21.5 -31.5t-35.5 -11.5q-12 0 -64 21q-45 18 -74 18q-41 0 -70.5 -25t-37.5 -59zM296 515q111 0 186.5 -76t75.5 -188q0 -111 -75.5 -187t-186.5 -76q-110 0 -185.5 76
t-75.5 187q0 112 75.5 188t185.5 76zM297 430q-71 0 -118.5 -51t-47.5 -128q0 -76 47.5 -127t118.5 -51t118.5 51t47.5 127q0 77 -47.5 128t-118.5 51z" />
    <glyph glyph-name="odieresis" unicode="&#xf6;" horiz-adv-x="593" 
d="M197 683q27 0 44.5 -18t17.5 -44q0 -27 -17.5 -45t-44.5 -18t-44.5 18t-17.5 45q0 26 17.5 44t44.5 18zM397 683q25 0 43.5 -18.5t18.5 -43.5q0 -27 -18 -45t-44 -18q-27 0 -45 18t-18 45q0 26 18 44t45 18zM296 515q111 0 186.5 -76t75.5 -188q0 -111 -75.5 -187
t-186.5 -76q-110 0 -185.5 76t-75.5 187q0 112 75.5 188t185.5 76zM297 430q-71 0 -118.5 -51t-47.5 -128q0 -76 47.5 -127t118.5 -51t118.5 51t47.5 127q0 77 -47.5 128t-118.5 51z" />
    <glyph glyph-name="divide" unicode="&#xf7;" 
d="M295 535q32 0 54 -22t22 -54t-22 -54t-54 -22q-31 0 -53.5 22.5t-22.5 53.5q0 32 22 54t54 22zM525 244v74h-460v-74h460zM295 27q-32 0 -54 22t-22 54q0 31 22.5 53.5t53.5 22.5q32 0 54 -22t22 -54t-22 -54t-54 -22z" />
    <glyph glyph-name="oslash" unicode="&#xf8;" horiz-adv-x="578" 
d="M593 501l-92 -92q50 -69 50 -158q0 -111 -75.5 -187t-186.5 -76q-87 0 -156 51l-39 -39h-109l93 94q-50 67 -50 157q0 112 75.5 188t185.5 76q88 0 158 -51l37 37h109zM121 251q0 -51 23 -92l240 242q-43 30 -95 30q-71 0 -119.5 -52t-48.5 -128zM457 251q0 50 -22 91
l-240 -241q43 -29 94 -29q71 0 119.5 51.5t48.5 127.5z" />
    <glyph glyph-name="ugrave" unicode="&#xf9;" 
d="M371 577h-72l-149 130h135zM505 0h-92v41q-56 -56 -144 -56q-77 0 -135.5 54t-58.5 132v329h92v-310q0 -53 36.5 -86t86.5 -33q53 0 88 33t35 76v320h92v-500z" />
    <glyph glyph-name="uacute" unicode="&#xfa;" 
d="M230 577h72l149 130h-135zM505 0h-92v41q-56 -56 -144 -56q-77 0 -135.5 54t-58.5 132v329h92v-310q0 -53 36.5 -86t86.5 -33q53 0 88 33t35 76v320h92v-500z" />
    <glyph glyph-name="ucircumflex" unicode="&#xfb;" 
d="M317 577h-53l-139 130h105l61 -76l60 76h105zM505 0h-92v41q-56 -56 -144 -56q-77 0 -135.5 54t-58.5 132v329h92v-310q0 -53 36.5 -86t86.5 -33q53 0 88 33t35 76v320h92v-500z" />
    <glyph glyph-name="udieresis" unicode="&#xfc;" 
d="M200 682q27 0 44.5 -18t17.5 -44q0 -27 -17.5 -45t-44.5 -18t-44.5 18t-17.5 45q0 26 17.5 44t44.5 18zM400 682q26 0 44 -18t18 -44q0 -27 -18 -45t-44 -18q-27 0 -45 18t-18 45q0 26 18 44t45 18zM505 0h-92v41q-56 -56 -144 -56q-77 0 -135.5 54t-58.5 132v329h92
v-310q0 -53 36.5 -86t86.5 -33q53 0 88 33t35 76v320h92v-500z" />
    <glyph glyph-name="yacute" unicode="&#xfd;" horiz-adv-x="506" 
d="M205 577h72l149 130h-135zM486 500l-184 -532q-24 -74 -58 -112t-93 -38q-44 0 -75 11v78q26 -7 55 -7q41 0 57.5 27t22.5 68l-188 505h107l130 -379l124 379h102z" />
    <glyph glyph-name="thorn" unicode="&#xfe;" 
d="M177 714v-266q68 62 145 62q97 0 162.5 -75.5t65.5 -186.5t-65.5 -187t-162.5 -76q-78 0 -145 63v-230h-92v896h92zM316 416q-62 0 -101.5 -44.5t-39.5 -124.5t39.5 -125t101.5 -45q59 0 99 45t40 124t-40 124.5t-99 45.5z" />
    <glyph glyph-name="ydieresis" unicode="&#xff;" horiz-adv-x="506" 
d="M164 683q27 0 44.5 -18t17.5 -44q0 -27 -17.5 -45t-44.5 -18t-44.5 18t-17.5 45q0 26 17.5 44t44.5 18zM364 683q26 0 44 -18.5t18 -43.5q0 -27 -18 -45t-44 -18q-27 0 -45 18t-18 45q0 26 18 44t45 18zM486 500l-184 -532q-24 -74 -58 -112t-93 -38q-44 0 -75 11v78
q26 -7 55 -7q41 0 57.5 27t22.5 68l-188 505h107l130 -379l124 379h102z" />
    <glyph glyph-name="Amacron" unicode="&#x100;" horiz-adv-x="654" 
d="M487 771h-320v60h320v-60zM627 0h-105l-52 153h-286l-53 -153h-104l248 714h101zM217 251h220l-109 321z" />
    <glyph glyph-name="amacron" unicode="&#x101;" horiz-adv-x="519" 
d="M424 578h-320v60h320v-60zM47 371l94 -13q11 29 40.5 49.5t73.5 20.5q50 0 83.5 -29.5t33.5 -76.5l-137 -20q-197 -28 -197 -162q0 -68 50 -110t126 -42q86 0 151 65h7v-53h92v325q0 81 -56 135.5t-151 54.5q-85 0 -141.5 -47t-68.5 -97zM373 245v-39q0 -43 -7 -58
q-14 -30 -51.5 -53t-85.5 -23q-42 0 -67 19.5t-25 49.5q0 39 26.5 56t77.5 27q25 5 77.5 13t54.5 8z" />
    <glyph glyph-name="Abreve" unicode="&#x102;" horiz-adv-x="670" 
d="M480 902h-56q0 -30 -24.5 -54.5t-63.5 -24.5q-42 0 -66 24.5t-24 54.5h-56q0 -55 40.5 -96t106.5 -41q63 0 103 41.5t40 95.5zM627 0h-105l-52 153h-286l-53 -153h-104l248 714h101zM217 251h220l-109 321z" />
    <glyph glyph-name="abreve" unicode="&#x103;" horiz-adv-x="519" 
d="M413 695h-56q0 -30 -24.5 -54.5t-63.5 -24.5q-41 0 -65.5 24t-24.5 55h-56q0 -55 40.5 -96t106.5 -41q63 0 103 41.5t40 95.5zM47 371l94 -13q11 29 40.5 49.5t73.5 20.5q50 0 83.5 -29.5t33.5 -76.5l-137 -20q-197 -28 -197 -162q0 -68 50 -110t126 -42q86 0 151 65h7
v-53h92v325q0 81 -56 135.5t-151 54.5q-85 0 -141.5 -47t-68.5 -97zM373 245v-39q0 -43 -7 -58q-14 -30 -51.5 -53t-85.5 -23q-42 0 -67 19.5t-25 49.5q0 39 26.5 56t77.5 27q25 5 77.5 13t54.5 8z" />
    <glyph glyph-name="Aogonek" unicode="&#x104;" horiz-adv-x="654" 
d="M667 -140q30 0 66 12v-58q-41 -26 -93 -26q-51 0 -85 32t-34 81q0 32 14.5 59t27.5 40h-41l-52 153h-286l-53 -153h-104l248 714h101l251 -714h8q-9 -9 -21.5 -33t-12.5 -47q0 -27 17.5 -43.5t48.5 -16.5zM437 251l-109 321l-111 -321h220z" />
    <glyph glyph-name="aogonek" unicode="&#x105;" horiz-adv-x="519" 
d="M496 -140q30 0 66 12v-58q-41 -26 -93 -26q-51 0 -85 32t-34 81q0 32 14.5 59t27.5 40h-20v53h-7q-65 -65 -151 -65q-76 0 -126 42t-50 110q0 134 197 162l137 20q0 47 -33.5 76.5t-83.5 29.5q-44 0 -73.5 -20.5t-40.5 -49.5l-94 13q12 50 68.5 97t141.5 47
q95 0 151 -54.5t56 -135.5v-325q-9 -9 -21.5 -33t-12.5 -47q0 -27 17.5 -43.5t48.5 -16.5zM373 206v39q-2 0 -54.5 -8t-77.5 -13q-51 -10 -77.5 -27t-26.5 -56q0 -30 25 -49.5t67 -19.5q48 0 85.5 23t51.5 53q7 15 7 58z" />
    <glyph glyph-name="Cacute" unicode="&#x106;" horiz-adv-x="760" 
d="M325 771h72l149 130h-135zM405 734q98 0 178 -45.5t130 -124.5l-87 -50q-36 59 -94 93t-127 34q-110 0 -186 -81t-76 -200q0 -118 75.5 -198.5t186.5 -80.5q76 0 131.5 34.5t109.5 113.5l84 -49q-50 -86 -134 -139t-191 -53q-155 0 -262.5 107.5t-107.5 264.5
q0 158 106.5 266t263.5 108z" />
    <glyph glyph-name="cacute" unicode="&#x107;" horiz-adv-x="554" 
d="M236 579h72l149 130h-135zM296 515q73 0 131.5 -34.5t92.5 -95.5l-84 -39q-53 84 -139 84q-71 0 -118.5 -51t-47.5 -128q0 -76 47.5 -127t118.5 -51q49 0 88.5 24t62.5 67l81 -36q-33 -64 -95 -102t-138 -38q-110 0 -185.5 76t-75.5 187q0 112 75.5 188t185.5 76z" />
    <glyph glyph-name="Cdotaccent" unicode="&#x10a;" horiz-adv-x="763" 
d="M412 890q26 0 44 -18t18 -44q0 -27 -18 -45t-44 -18q-27 0 -45 18t-18 45q0 26 18 44t45 18zM405 734q98 0 178 -45.5t130 -124.5l-87 -50q-36 59 -94 93t-127 34q-110 0 -186 -81t-76 -200q0 -118 75.5 -198.5t186.5 -80.5q76 0 131.5 34.5t109.5 113.5l84 -49
q-50 -86 -134 -139t-191 -53q-155 0 -262.5 107.5t-107.5 264.5q0 158 106.5 266t263.5 108z" />
    <glyph glyph-name="cdotaccent" unicode="&#x10b;" horiz-adv-x="554" 
d="M299 683q25 0 43.5 -18.5t18.5 -43.5q0 -27 -18 -45t-44 -18q-27 0 -45 18t-18 45q0 26 18 44t45 18zM296 515q73 0 131.5 -34.5t92.5 -95.5l-84 -39q-53 84 -139 84q-71 0 -118.5 -51t-47.5 -128q0 -76 47.5 -127t118.5 -51q49 0 88.5 24t62.5 67l81 -36
q-33 -64 -95 -102t-138 -38q-110 0 -185.5 76t-75.5 187q0 112 75.5 188t185.5 76z" />
    <glyph glyph-name="Ccaron" unicode="&#x10c;" horiz-adv-x="763" 
d="M417 772h-53l-139 130h105l61 -76l60 76h105zM405 734q98 0 178 -45.5t130 -124.5l-87 -50q-36 59 -94 93t-127 34q-110 0 -186 -81t-76 -200q0 -118 75.5 -198.5t186.5 -80.5q76 0 131.5 34.5t109.5 113.5l84 -49q-50 -86 -134 -139t-191 -53q-155 0 -262.5 107.5
t-107.5 264.5q0 158 106.5 266t263.5 108z" />
    <glyph glyph-name="ccaron" unicode="&#x10d;" horiz-adv-x="554" 
d="M324 578h-53l-139 130h105l61 -76l60 76h105zM296 515q73 0 131.5 -34.5t92.5 -95.5l-84 -39q-53 84 -139 84q-71 0 -118.5 -51t-47.5 -128q0 -76 47.5 -127t118.5 -51q49 0 88.5 24t62.5 67l81 -36q-33 -64 -95 -102t-138 -38q-110 0 -185.5 76t-75.5 187
q0 112 75.5 188t185.5 76z" />
    <glyph glyph-name="Dcaron" unicode="&#x10e;" horiz-adv-x="671" 
d="M309 772h-53l-139 130h105l61 -76l60 76h105zM85 714h195q113 0 195.5 -50.5t120.5 -128.5t38 -173q0 -165 -97 -263.5t-264 -98.5h-188v714zM182 619v-528h74q125 0 201 64.5t76 207.5q0 102 -52 168t-138 82q-29 6 -81 6h-80z" />
    <glyph glyph-name="dcaron" unicode="&#x10f;" horiz-adv-x="706" 
d="M413 734h92v-734h-92v52q-68 -62 -143 -62q-98 0 -164 75.5t-66 186.5t66 187t164 76q80 0 143 -63v282zM656 733q31 0 53 -22t22 -54t-15 -63q-42 -85 -162 -170l-17 20q31 28 59 67.5t38 72.5q-24 7 -39 27t-15 46q0 32 21.5 54t54.5 22zM274 83q62 0 102 45t40 125
t-40 125t-102 45q-58 0 -98.5 -45t-40.5 -124t40.5 -125t98.5 -46z" />
    <glyph glyph-name="Dcroat" unicode="&#x110;" horiz-adv-x="674" 
d="M85 714h195q113 0 195.5 -50.5t120.5 -128.5t38 -173q0 -165 -97 -263.5t-264 -98.5h-188v315h-60v85h60v314zM182 91h74q125 0 201 64.5t76 207.5q0 102 -52 168t-138 82q-29 6 -81 6h-80v-219h164v-85h-164v-224z" />
    <glyph glyph-name="dcroat" unicode="&#x111;" horiz-adv-x="596" 
d="M581 555h-76v-555h-92v52q-68 -62 -143 -62q-98 0 -164 75.5t-66 186.5t66 187t164 76q80 0 143 -63v103h-127v84h127v95h92v-95h76v-84zM274 83q62 0 102 45t40 125t-40 125t-102 45q-58 0 -98.5 -45t-40.5 -124t40.5 -125t98.5 -46z" />
    <glyph glyph-name="Emacron" unicode="&#x112;" horiz-adv-x="597" 
d="M479 771h-320v60h320v-60zM546 617h-364v-211h337v-96h-337v-214h370v-96h-467v714h461v-97z" />
    <glyph glyph-name="emacron" unicode="&#x113;" horiz-adv-x="577" 
d="M449 579h-320v60h320v-60zM293 515q106 0 176.5 -74t70.5 -184q0 -15 -2 -39h-399q-1 -59 45.5 -102.5t114.5 -43.5q87 0 139 78l80 -38q-35 -57 -93 -90.5t-128 -33.5q-115 0 -188.5 73.5t-72.5 189.5q1 112 74 188t183 76zM293 431q-63 0 -106 -37t-50 -98h306
q-8 60 -49 97.5t-101 37.5z" />
    <glyph glyph-name="Edotaccent" unicode="&#x116;" horiz-adv-x="597" 
d="M322 890q26 0 44 -18t18 -44q0 -27 -18 -45t-44 -18q-27 0 -45 18t-18 45q0 26 18 44t45 18zM546 617h-364v-211h337v-96h-337v-214h370v-96h-467v714h461v-97z" />
    <glyph glyph-name="edotaccent" unicode="&#x117;" horiz-adv-x="577" 
d="M296 683q26 0 44 -18.5t18 -43.5q0 -27 -18 -45t-44 -18q-27 0 -45 18t-18 45q0 26 18 44t45 18zM293 515q106 0 176.5 -74t70.5 -184q0 -15 -2 -39h-399q-1 -59 45.5 -102.5t114.5 -43.5q87 0 139 78l80 -38q-35 -57 -93 -90.5t-128 -33.5q-115 0 -188.5 73.5
t-72.5 189.5q1 112 74 188t183 76zM293 431q-63 0 -106 -37t-50 -98h306q-8 60 -49 97.5t-101 37.5z" />
    <glyph glyph-name="Eogonek" unicode="&#x118;" horiz-adv-x="597" 
d="M552 0h-98q-9 -9 -21.5 -33t-12.5 -47q0 -27 17.5 -43.5t48.5 -16.5q30 0 66 12v-58q-41 -26 -93 -26q-51 0 -85 32t-34 81q0 32 14.5 59t27.5 40h-297v714h461v-97h-364v-211h337v-96h-337v-214h370v-96z" />
    <glyph glyph-name="eogonek" unicode="&#x119;" horiz-adv-x="577" 
d="M538 218h-399q-1 -59 45.5 -102.5t114.5 -43.5q87 0 139 78l80 -38q-52 -83 -142 -112q-9 -9 -21.5 -33t-12.5 -47q0 -27 17.5 -43.5t48.5 -16.5q30 0 66 12v-58q-41 -26 -93 -26q-51 0 -85 32t-34 81q0 43 32 87q-114 2 -186.5 75t-71.5 188q1 112 74 188t183 76
q106 0 176.5 -74t70.5 -184q0 -15 -2 -39zM137 296h306q-8 60 -49 97.5t-101 37.5q-63 0 -106 -37t-50 -98z" />
    <glyph glyph-name="Ecaron" unicode="&#x11a;" horiz-adv-x="597" 
d="M345 772h-53l-139 130h105l61 -76l60 76h105zM546 617h-364v-211h337v-96h-337v-214h370v-96h-467v714h461v-97z" />
    <glyph glyph-name="ecaron" unicode="&#x11b;" horiz-adv-x="577" 
d="M319 578h-53l-139 130h105l61 -76l60 76h105zM293 515q106 0 176.5 -74t70.5 -184q0 -15 -2 -39h-399q-1 -59 45.5 -102.5t114.5 -43.5q87 0 139 78l80 -38q-35 -57 -93 -90.5t-128 -33.5q-115 0 -188.5 73.5t-72.5 189.5q1 112 74 188t183 76zM293 431q-63 0 -106 -37
t-50 -98h306q-8 60 -49 97.5t-101 37.5z" />
    <glyph glyph-name="Gbreve" unicode="&#x11e;" horiz-adv-x="775" 
d="M572 902h-56q0 -30 -24.5 -54.5t-63.5 -24.5q-42 0 -66 24.5t-24 54.5h-56q0 -55 40.5 -96t106.5 -41q63 0 103 41.5t40 95.5zM405 734q98 0 178 -45.5t130 -124.5l-87 -50q-36 59 -94 93t-127 34q-110 0 -186 -81t-76 -200q0 -118 75.5 -198.5t186.5 -80.5
q86 0 150.5 58.5t75.5 140.5h-185v90h293q2 -35 0 -67q-4 -77 -46 -148.5t-120 -119t-171 -47.5q-155 0 -261 107.5t-106 264.5q0 158 106.5 266t263.5 108z" />
    <glyph glyph-name="gbreve" unicode="&#x11f;" horiz-adv-x="595" 
d="M433 695h-56q0 -30 -24.5 -54.5t-63.5 -24.5q-41 0 -65.5 24t-24.5 55h-56q0 -55 40.5 -96t106.5 -41q63 0 103 41.5t40 95.5zM418 78v-71q0 -47 -36 -75t-89 -28q-54 0 -87 20.5t-44 51.5l-94 -15q16 -56 73.5 -99t152.5 -43q97 0 156.5 57t59.5 141v483h-92v-48
q-67 63 -145 63q-96 0 -162 -75t-66 -175t66 -174.5t162 -74.5q71 0 139 62h6zM140 267q0 68 41 112t98 44q60 0 100.5 -44.5t40.5 -112.5q0 -71 -40 -113.5t-101 -42.5q-58 0 -98.5 43t-40.5 114z" />
    <glyph glyph-name="Gdotaccent" unicode="&#x120;" horiz-adv-x="775" 
d="M387 891q25 0 43.5 -18.5t18.5 -43.5q0 -27 -18 -45t-44 -18q-27 0 -45 18t-18 45q0 26 18 44t45 18zM405 734q98 0 178 -45.5t130 -124.5l-87 -50q-36 59 -94 93t-127 34q-110 0 -186 -81t-76 -200q0 -118 75.5 -198.5t186.5 -80.5q86 0 150.5 58.5t75.5 140.5h-185v90
h293q2 -35 0 -67q-4 -77 -46 -148.5t-120 -119t-171 -47.5q-155 0 -261 107.5t-106 264.5q0 158 106.5 266t263.5 108z" />
    <glyph glyph-name="gdotaccent" unicode="&#x121;" horiz-adv-x="595" 
d="M274 683q26 0 44 -18.5t18 -43.5q0 -27 -18 -45t-44 -18q-27 0 -45 18t-18 45q0 26 18 44t45 18zM418 78v-71q0 -47 -36 -75t-89 -28q-54 0 -87 20.5t-44 51.5l-94 -15q16 -56 73.5 -99t152.5 -43q97 0 156.5 57t59.5 141v483h-92v-48q-67 63 -145 63q-96 0 -162 -75
t-66 -175t66 -174.5t162 -74.5q71 0 139 62h6zM140 267q0 68 41 112t98 44q60 0 100.5 -44.5t40.5 -112.5q0 -71 -40 -113.5t-101 -42.5q-58 0 -98.5 43t-40.5 114z" />
    <glyph glyph-name="Gcommaaccent" unicode="&#x122;" horiz-adv-x="775" 
d="M446 370h293q2 -35 0 -67q-4 -77 -46 -148.5t-120 -119t-171 -47.5q-155 0 -261 107.5t-106 264.5q0 158 106.5 266t263.5 108q98 0 178 -45.5t130 -124.5l-87 -50q-36 59 -94 93t-127 34q-110 0 -186 -81t-76 -200q0 -118 75.5 -198.5t186.5 -80.5q86 0 150.5 58.5
t75.5 140.5h-185v90zM414 -44q31 0 53 -22t22 -54t-15 -63q-42 -85 -162 -170l-17 20q31 28 59 67.5t38 72.5q-24 7 -39 27t-15 46q0 32 21.5 54t54.5 22z" />
    <glyph glyph-name="gcommaaccent" unicode="&#x123;" horiz-adv-x="595" 
d="M282 558q-31 0 -53 22t-22 54t15 63q42 85 162 170l17 -20q-31 -28 -59 -67.5t-38 -72.5q24 -7 39 -27t15 -46q0 -32 -21.5 -54t-54.5 -22zM510 500v-483q0 -84 -59.5 -141t-156.5 -57q-95 0 -152.5 43t-73.5 99l94 15q11 -31 44 -51.5t87 -20.5q53 0 89 28t36 75v71h-6
q-68 -62 -139 -62q-96 0 -162 74.5t-66 174.5t66 175t162 75q78 0 145 -63v48h92zM279 110q61 0 101 42.5t40 113.5q0 68 -40.5 112.5t-100.5 44.5q-57 0 -98 -44t-41 -112q0 -71 40.5 -114t98.5 -43z" />
    <glyph glyph-name="Hbar" unicode="&#x126;" horiz-adv-x="721" 
d="M706 538h-90v-538h-97v313h-317v-313h-97v538h-90v81h90v95h97v-95h317v95h97v-95h90v-81zM519 538h-317v-135h317v135z" />
    <glyph glyph-name="hbar" unicode="&#x127;" 
d="M321 515q77 0 135.5 -54t58.5 -132v-329h-92v310q0 53 -36.5 86t-86.5 33q-53 0 -88 -31t-35 -73v-325h-92v538h-70v81h70v115h92v-115h129v-81h-129v-79q56 56 144 56z" />
    <glyph glyph-name="Itilde" unicode="&#x128;" horiz-adv-x="267" 
d="M-43 769h55q14 36 49 36q17 0 64 -20q48 -20 77 -20q44 0 72.5 27.5t35.5 64.5h-50q-9 -20 -21.5 -31.5t-35.5 -11.5q-12 0 -64 21q-45 18 -74 18q-41 0 -70.5 -25t-37.5 -59zM182 0h-97v714h97v-714z" />
    <glyph glyph-name="itilde" unicode="&#x129;" horiz-adv-x="222" 
d="M-66 562h55q14 36 49 36q17 0 64 -20t77 -20q44 0 72.5 27.5t35.5 64.5h-50q-9 -20 -21.5 -31.5t-35.5 -11.5q-12 0 -64 21q-45 18 -74 18q-41 0 -70.5 -25t-37.5 -59zM157 0h-92v500h92v-500z" />
    <glyph glyph-name="Imacron" unicode="&#x12a;" horiz-adv-x="267" 
d="M294 771h-320v60h320v-60zM182 0h-97v714h97v-714z" />
    <glyph glyph-name="imacron" unicode="&#x12b;" horiz-adv-x="250" 
d="M285 578h-320v60h320v-60zM171 0v500h-92v-500h92z" />
    <glyph glyph-name="Iogonek" unicode="&#x12e;" horiz-adv-x="267" 
d="M214 -140q30 0 66 12v-58q-41 -26 -93 -26q-51 0 -85 32t-34 81q0 32 14.5 59t27.5 40h-25v714h97v-714q-9 -9 -21.5 -33t-12.5 -47q0 -27 17.5 -43.5t48.5 -16.5z" />
    <glyph glyph-name="iogonek" unicode="&#x12f;" horiz-adv-x="279" 
d="M140 572q-30 0 -50 20t-20 50q0 29 20 49t50 20q28 0 48.5 -20.5t20.5 -48.5q0 -30 -20 -50t-49 -20zM213 -140q30 0 66 12v-58q-41 -26 -93 -26q-51 0 -85 32t-34 81q0 32 14.5 59t27.5 40h-15v500h92v-500h-5q-9 -9 -21.5 -33t-12.5 -47q0 -27 17.5 -43.5t48.5 -16.5z
" />
    <glyph glyph-name="Idotaccent" unicode="&#x130;" horiz-adv-x="295" 
d="M148 891q26 0 44 -18.5t18 -43.5q0 -27 -18 -45t-44 -18q-27 0 -45 18t-18 45q0 26 18 44t45 18zM196 0h-97v714h97v-714z" />
    <glyph glyph-name="dotlessi" unicode="&#x131;" horiz-adv-x="222" 
d="M157 0v500h-92v-500h92z" />
    <glyph glyph-name="IJ" unicode="&#x132;" horiz-adv-x="569" 
d="M182 190h-97v524h97v-524zM484 714v-513q0 -97 -50.5 -155t-140.5 -58q-59 0 -112 23l1 98q49 -18 97 -18q56 0 81.5 30t25.5 104v489h98z" />
    <glyph glyph-name="ij" unicode="&#x133;" horiz-adv-x="542" 
d="M70 642q0 -30 20 -50t50 -20q29 0 49 20t20 50q0 28 -20.5 48.5t-48.5 20.5q-30 0 -50 -20t-20 -49zM388 711q28 0 48.5 -20.5t20.5 -48.5q0 -30 -20 -50t-49 -20q-30 0 -50 20t-20 50q0 29 20 49t50 20zM186 0v500h-92v-500h92zM434 500v-513q0 -70 -40.5 -119.5
t-118.5 -49.5q-49 0 -96 18v78q44 -11 72 -11q51 0 71 26t20 74v497h92z" />
    <glyph glyph-name="Kcommaaccent" unicode="&#x136;" horiz-adv-x="673" 
d="M656 0h-125l-270 338l-79 -93v-245h-97v714h97v-310l269 310h128l-253 -299zM344 -44q31 0 53 -22t22 -54t-15 -63q-42 -85 -162 -170l-17 20q31 28 59 67.5t38 72.5q-24 7 -39 27t-15 46q0 32 21.5 54t54.5 22z" />
    <glyph glyph-name="kcommaaccent" unicode="&#x137;" horiz-adv-x="576" 
d="M561 0h-113l-201 244l-70 -67v-177h-92v734h92v-432l212 198h124l-202 -194zM302 -44q31 0 53 -22t22 -54t-15 -63q-42 -85 -162 -170l-17 20q31 28 59 67.5t38 72.5q-24 7 -39 27t-15 46q0 32 21.5 54t54.5 22z" />
    <glyph glyph-name="Lacute" unicode="&#x139;" horiz-adv-x="575" 
d="M80 770h72l149 130h-135zM182 93h358v-93h-455v714h97v-621z" />
    <glyph glyph-name="lacute" unicode="&#x13a;" horiz-adv-x="262" 
d="M75 771h72l149 130h-135zM177 0h-92v734h92v-734z" />
    <glyph glyph-name="Lcommaaccent" unicode="&#x13b;" horiz-adv-x="575" 
d="M540 93v-93h-455v714h97v-621h358zM314 -44q31 0 53 -22t22 -54t-15 -63q-42 -85 -162 -170l-17 20q31 28 59 67.5t38 72.5q-24 7 -39 27t-15 46q0 32 21.5 54t54.5 22z" />
    <glyph glyph-name="lcommaaccent" unicode="&#x13c;" horiz-adv-x="262" 
d="M177 0h-92v734h92v-734zM127 -44q31 0 53 -22t22 -54t-15 -63q-42 -85 -162 -170l-17 20q31 28 59 67.5t38 72.5q-24 7 -39 27t-15 46q0 32 21.5 54t54.5 22z" />
    <glyph glyph-name="Lcaron" unicode="&#x13d;" horiz-adv-x="575" 
d="M444 585q-42 -85 -162 -170l-17 20q31 28 59 67.5t38 72.5q-24 7 -39 27t-15 46q0 32 21.5 54t54.5 22q31 0 53 -22t22 -54t-15 -63zM540 93v-93h-455v714h97v-621h358z" />
    <glyph glyph-name="lcaron" unicode="&#x13e;" horiz-adv-x="438" 
d="M348 735q31 0 53 -22t22 -54t-15 -63q-42 -85 -162 -170l-17 20q31 28 59 67.5t38 72.5q-24 7 -39 27t-15 46q0 32 21.5 54t54.5 22zM85 734h92v-734h-92v734z" />
    <glyph glyph-name="Ldot" unicode="&#x13f;" horiz-adv-x="575" 
d="M182 93h358v-93h-455v714h97v-621zM361 439q31 0 53 -22t22 -54t-21.5 -54t-53.5 -22q-33 0 -54.5 22t-21.5 54t21.5 54t54.5 22z" />
    <glyph glyph-name="ldot" unicode="&#x140;" horiz-adv-x="391" 
d="M177 0h-92v734h92v-734zM291 439q31 0 53 -22t22 -54t-21.5 -54t-53.5 -22q-33 0 -54.5 22t-21.5 54t21.5 54t54.5 22z" />
    <glyph glyph-name="Lslash" unicode="&#x141;" horiz-adv-x="612" 
d="M577 90v-90h-455v330l-102 -46l-35 70l137 62v298h97v-255l117 53l35 -70l-152 -68v-284h358z" />
    <glyph glyph-name="lslash" unicode="&#x142;" horiz-adv-x="251" 
d="M172 357v-357h-92v316l-70 -32l-35 70l105 47v333h92v-291l69 31l35 -70z" />
    <glyph glyph-name="Nacute" unicode="&#x143;" horiz-adv-x="744" 
d="M315 771h72l149 130h-135zM560 155l-351 559h-124v-714h97v569h2l351 -569h124v714h-97v-559h-2z" />
    <glyph glyph-name="nacute" unicode="&#x144;" horiz-adv-x="600" 
d="M250 577h72l149 130h-135zM321 515q77 0 135.5 -54t58.5 -132v-329h-92v310q0 53 -36.5 85.5t-86.5 32.5q-56 0 -89.5 -31.5t-33.5 -73.5v-323h-92v500h92v-41q56 56 144 56z" />
    <glyph glyph-name="Ncommaaccent" unicode="&#x145;" horiz-adv-x="744" 
d="M659 714v-714h-124l-351 569h-2v-569h-97v714h124l351 -559h2v559h97zM364 -44q31 0 53 -22t22 -54t-15 -63q-42 -85 -162 -170l-17 20q31 28 59 67.5t38 72.5q-24 7 -39 27t-15 46q0 32 21.5 54t54.5 22z" />
    <glyph glyph-name="ncommaaccent" unicode="&#x146;" horiz-adv-x="600" 
d="M321 515q77 0 135.5 -54t58.5 -132v-329h-92v310q0 53 -36.5 85.5t-86.5 32.5q-56 0 -89.5 -31.5t-33.5 -73.5v-323h-92v500h92v-41q56 56 144 56zM304 -44q31 0 53 -22t22 -54t-15 -63q-42 -85 -162 -170l-17 20q31 28 59 67.5t38 72.5q-24 7 -39 27t-15 46
q0 32 21.5 54t54.5 22z" />
    <glyph glyph-name="Ncaron" unicode="&#x147;" horiz-adv-x="744" 
d="M400 771h-53l-139 130h105l61 -76l60 76h105zM560 155l-351 559h-124v-714h97v569h2l351 -569h124v714h-97v-559h-2z" />
    <glyph glyph-name="ncaron" unicode="&#x148;" horiz-adv-x="600" 
d="M339 577h-53l-139 130h105l61 -76l60 76h105zM321 515q77 0 135.5 -54t58.5 -132v-329h-92v310q0 53 -36.5 85.5t-86.5 32.5q-56 0 -89.5 -31.5t-33.5 -73.5v-323h-92v500h92v-41q56 56 144 56z" />
    <glyph glyph-name="Eng" unicode="&#x14a;" horiz-adv-x="744" 
d="M659 714v-727q0 -70 -40.5 -119.5t-118.5 -49.5q-49 0 -96 18v78q44 -11 72 -11q50 0 68 25t18 73l-378 545h-2v-546h-97v714h97l378 -542h2v542h97z" />
    <glyph glyph-name="eng" unicode="&#x14b;" horiz-adv-x="600" 
d="M321 515q77 0 135.5 -54t58.5 -132v-342q0 -70 -40.5 -119.5t-118.5 -49.5q-49 0 -96 18v78q44 -11 72 -11q51 0 71 26t20 74v307q0 53 -36.5 85.5t-86.5 32.5q-56 0 -89.5 -31.5t-33.5 -73.5v-323h-92v500h92v-41q56 56 144 56z" />
    <glyph glyph-name="Omacron" unicode="&#x14c;" horiz-adv-x="810" 
d="M565 771h-320v60h320v-60zM405 734q157 0 263.5 -108t106.5 -266q0 -157 -107.5 -264.5t-262.5 -107.5t-262.5 107.5t-107.5 264.5q0 158 106.5 266t263.5 108zM405 641q-110 0 -186 -81t-76 -200q0 -118 75.5 -198.5t186.5 -80.5t186.5 80.5t75.5 198.5q0 119 -76 200
t-186 81z" />
    <glyph glyph-name="omacron" unicode="&#x14d;" horiz-adv-x="593" 
d="M457 578h-320v60h320v-60zM296 515q111 0 186.5 -76t75.5 -188q0 -111 -75.5 -187t-186.5 -76q-110 0 -185.5 76t-75.5 187q0 112 75.5 188t185.5 76zM297 430q-71 0 -118.5 -51t-47.5 -128q0 -76 47.5 -127t118.5 -51t118.5 51t47.5 127q0 77 -47.5 128t-118.5 51z" />
    <glyph glyph-name="Ohungarumlaut" unicode="&#x150;" horiz-adv-x="810" 
d="M244 770h72l149 130h-135zM424 770h72l149 130h-135zM405 734q157 0 263.5 -108t106.5 -266q0 -157 -107.5 -264.5t-262.5 -107.5t-262.5 107.5t-107.5 264.5q0 158 106.5 266t263.5 108zM405 641q-110 0 -186 -81t-76 -200q0 -118 75.5 -198.5t186.5 -80.5t186.5 80.5
t75.5 198.5q0 119 -76 200t-186 81z" />
    <glyph glyph-name="ohungarumlaut" unicode="&#x151;" horiz-adv-x="593" 
d="M156 578h72l149 130h-135zM336 578h72l149 130h-135zM296 515q111 0 186.5 -76t75.5 -188q0 -111 -75.5 -187t-186.5 -76q-110 0 -185.5 76t-75.5 187q0 112 75.5 188t185.5 76zM297 430q-71 0 -118.5 -51t-47.5 -128q0 -76 47.5 -127t118.5 -51t118.5 51t47.5 127
q0 77 -47.5 128t-118.5 51z" />
    <glyph glyph-name="OE" unicode="&#x152;" horiz-adv-x="1164" 
d="M401 734q156 0 262 -106v86h461v-90h-364v-221h337v-90h-337v-221h370v-92h-467v95q-107 -107 -262 -107t-262.5 107.5t-107.5 264.5q0 158 106.5 266t263.5 108zM401 641q-110 0 -186 -81t-76 -200q0 -118 75.5 -198.5t186.5 -80.5t186.5 80.5t75.5 198.5q0 119 -76 200
t-186 81z" />
    <glyph glyph-name="oe" unicode="&#x153;" horiz-adv-x="1006" 
d="M967 218h-399q-1 -59 45.5 -102.5t114.5 -43.5q87 0 139 78l80 -38q-35 -57 -93 -90.5t-128 -33.5t-126 28.5t-91 79.5q-36 -50 -91.5 -79t-121.5 -29q-110 0 -185.5 76t-75.5 187q0 112 75.5 188t185.5 76q66 0 122.5 -29.5t92.5 -80.5q34 51 89.5 80.5t121.5 29.5
q106 0 176.5 -74t70.5 -184q0 -15 -2 -39zM297 72q71 0 119 51t49 127v1q0 76 -48.5 128t-119.5 52t-119.5 -52t-48.5 -128t48.5 -127.5t119.5 -51.5zM566 296h306q-8 60 -49 97.5t-101 37.5q-63 0 -106 -37t-50 -98z" />
    <glyph glyph-name="Racute" unicode="&#x154;" horiz-adv-x="628" 
d="M205 771h72l149 130h-135zM85 714h228q102 0 169 -58t67 -163q0 -68 -40.5 -123.5t-105.5 -80.5l213 -289h-125l-198 272h-111v-272h-97v714zM182 617v-250h125q64 0 105 33.5t41 95.5q0 57 -40.5 89t-105.5 32h-125z" />
    <glyph glyph-name="racute" unicode="&#x155;" horiz-adv-x="369" 
d="M137 578h72l149 130h-135zM342 515v-110q-14 2 -45 2q-55 0 -85 -34q-35 -37 -35 -106v-267h-92v500h92v-61q60 76 165 76z" />
    <glyph glyph-name="Rcommaaccent" unicode="&#x156;" horiz-adv-x="628" 
d="M616 0h-125l-198 272h-111v-272h-97v714h228q102 0 169 -58t67 -163q0 -68 -40.5 -123.5t-105.5 -80.5zM182 367h125q64 0 105 33.5t41 95.5q0 57 -40.5 89t-105.5 32h-125v-250zM334 -34q31 0 53 -22t22 -54t-15 -63q-42 -85 -162 -170l-17 20q31 28 59 67.5t38 72.5
q-24 7 -39 27t-15 46q0 32 21.5 54t54.5 22z" />
    <glyph glyph-name="rcommaaccent" unicode="&#x157;" horiz-adv-x="369" 
d="M177 500v-61q60 76 165 76v-110q-14 2 -45 2q-55 0 -85 -34q-35 -37 -35 -106v-267h-92v500h92zM264 -34q31 0 53 -22t22 -54t-15 -63q-42 -85 -162 -170l-17 20q31 28 59 67.5t38 72.5q-24 7 -39 27t-15 46q0 32 21.5 54t54.5 22z" />
    <glyph glyph-name="Rcaron" unicode="&#x158;" horiz-adv-x="628" 
d="M307 770h-53l-139 130h105l61 -76l60 76h105zM85 714h228q102 0 169 -58t67 -163q0 -68 -40.5 -123.5t-105.5 -80.5l213 -289h-125l-198 272h-111v-272h-97v714zM182 617v-250h125q64 0 105 33.5t41 95.5q0 57 -40.5 89t-105.5 32h-125z" />
    <glyph glyph-name="rcaron" unicode="&#x159;" horiz-adv-x="369" 
d="M234 578h-53l-139 130h105l61 -76l60 76h105zM342 515v-110q-14 2 -45 2q-55 0 -85 -34q-35 -37 -35 -106v-267h-92v500h92v-61q60 76 165 76z" />
    <glyph glyph-name="Sacute" unicode="&#x15a;" horiz-adv-x="608" 
d="M275 771h72l149 130h-135zM299 734q98 0 168 -54.5t89 -140.5l-98 -18q-14 49 -54 85t-105 36q-58 0 -96.5 -28.5t-38.5 -76.5q0 -42 34.5 -64t106.5 -44l67 -20q201 -61 201 -203q0 -96 -76 -157t-181 -61q-66 0 -121 20t-89.5 52.5t-55.5 66.5t-30 68l101 23
q21 -56 69 -96.5t125 -40.5q65 0 111 34t46 83q0 48 -39.5 76.5t-112.5 47.5l-83 22q-74 19 -125.5 67t-51.5 119q0 87 69 145.5t170 58.5z" />
    <glyph glyph-name="sacute" unicode="&#x15b;" horiz-adv-x="464" 
d="M180 578h72l149 130h-135zM225 515q79 0 133.5 -43t67.5 -96l-86 -19q-31 75 -118 75q-36 0 -60.5 -19t-24.5 -46q0 -7 1.5 -12.5t5.5 -10.5t7.5 -9t11 -8t12 -6t15 -5.5l15 -5t17 -5.5t17.5 -5l56 -17q62 -19 99.5 -50t37.5 -90q0 -68 -57.5 -112t-137.5 -43
q-87 1 -145 44t-77 104l90 23q33 -87 138 -87q40 0 69 18.5t29 45.5q0 31 -22.5 46.5t-70.5 28.5l-60 16q-146 40 -146 138q0 64 53.5 107t129.5 43z" />
    <glyph glyph-name="Scedilla" unicode="&#x15e;" horiz-adv-x="608" 
d="M573 206q0 -87 -64.5 -146.5t-158.5 -69.5l-16 -30q6 3 21 3q52 0 84.5 -27.5t32.5 -69.5q0 -54 -40 -85t-93 -31q-60 0 -100.5 31t-53.5 64l62 20q33 -54 93 -54q32 0 50 14t18 38q0 51 -83 51q-50 0 -86 -3l41 79q-58 5 -105.5 26.5t-78 52.5t-49.5 63t-27 63l101 23
q21 -56 69 -96.5t125 -40.5q65 0 111 34t46 83q0 48 -39.5 76.5t-112.5 47.5l-83 22q-74 19 -125.5 67t-51.5 119q0 87 69 145.5t170 58.5q98 0 168 -54.5t89 -140.5l-98 -18q-14 49 -54 85t-105 36q-58 0 -96.5 -28.5t-38.5 -76.5q0 -42 34.5 -64t106.5 -44l67 -20
q201 -61 201 -203z" />
    <glyph glyph-name="scedilla" unicode="&#x15f;" horiz-adv-x="464" 
d="M432 143q0 -62 -50 -105t-122 -49l-15 -29q6 3 21 3q52 0 84.5 -27.5t32.5 -69.5q0 -54 -40 -85t-93 -31q-60 0 -100.5 31t-53.5 64l62 20q33 -54 93 -54q32 0 50 14t18 38q0 51 -83 51q-50 0 -86 -3l42 81q-69 11 -115 51.5t-62 92.5l90 23q33 -87 138 -87q40 0 69 18.5
t29 45.5q0 31 -22.5 46.5t-70.5 28.5l-60 16q-146 40 -146 138q0 64 53.5 107t129.5 43q79 0 133.5 -43t67.5 -96l-86 -19q-31 75 -118 75q-36 0 -60.5 -19t-24.5 -46q0 -7 1.5 -12.5t5.5 -10.5t7.5 -9t11 -8t12 -6t15 -5.5l15 -5t17 -5.5t17.5 -5l56 -17q62 -19 99.5 -50
t37.5 -90z" />
    <glyph glyph-name="Scaron" unicode="&#x160;" horiz-adv-x="614" 
d="M346 772h-53l-139 130h105l61 -76l60 76h105zM299 734q98 0 168 -54.5t89 -140.5l-98 -18q-14 49 -54 85t-105 36q-58 0 -96.5 -28.5t-38.5 -76.5q0 -42 34.5 -64t106.5 -44l67 -20q201 -61 201 -203q0 -96 -76 -157t-181 -61q-66 0 -121 20t-89.5 52.5t-55.5 66.5
t-30 68l101 23q21 -56 69 -96.5t125 -40.5q65 0 111 34t46 83q0 48 -39.5 76.5t-112.5 47.5l-83 22q-74 19 -125.5 67t-51.5 119q0 87 69 145.5t170 58.5z" />
    <glyph glyph-name="scaron" unicode="&#x161;" horiz-adv-x="481" 
d="M270 578h-53l-139 130h105l61 -76l60 76h105zM225 515q79 0 133.5 -43t67.5 -96l-86 -19q-31 75 -118 75q-36 0 -60.5 -19t-24.5 -46q0 -7 1.5 -12.5t5.5 -10.5t7.5 -9t11 -8t12 -6t15 -5.5l15 -5t17 -5.5t17.5 -5l56 -17q62 -19 99.5 -50t37.5 -90q0 -68 -57.5 -112
t-137.5 -43q-87 1 -145 44t-77 104l90 23q33 -87 138 -87q40 0 69 18.5t29 45.5q0 31 -22.5 46.5t-70.5 28.5l-60 16q-146 40 -146 138q0 64 53.5 107t129.5 43z" />
    <glyph glyph-name="Tcedilla" unicode="&#x162;" horiz-adv-x="583" 
d="M327 0l-21 -40q6 3 21 3q52 0 84.5 -27.5t32.5 -69.5q0 -54 -40 -85t-93 -31q-60 0 -100.5 31t-53.5 64l62 20q33 -54 93 -54q32 0 50 14t18 38q0 51 -83 51q-50 0 -86 -3l47 89h-15v619h-223v95h543v-95h-223v-619h-13z" />
    <glyph glyph-name="tcedilla" unicode="&#x163;" horiz-adv-x="383" 
d="M253 -37q52 0 84.5 -27.5t32.5 -69.5q0 -54 -40 -85t-93 -31q-60 0 -100.5 31t-53.5 64l62 20q33 -54 93 -54q32 0 50 14t18 38q0 51 -83 51q-50 0 -86 -3l49 94q-41 20 -62 61t-21 90v260h-78v84h78v131h92v-131h149v-84h-149v-242q0 -47 20 -73t71 -26q40 0 72 8v-76
q-47 -18 -96 -18h-14l-16 -29q6 3 21 3z" />
    <glyph glyph-name="Tcaron" unicode="&#x164;" horiz-adv-x="583" 
d="M318 771h-53l-139 130h105l61 -76l60 76h105zM563 619h-223v-619h-97v619h-223v95h543v-95z" />
    <glyph glyph-name="tcaron" unicode="&#x165;" horiz-adv-x="524" 
d="M484 735q31 0 53 -22t22 -54t-15 -63q-42 -85 -162 -170l-17 20q31 28 59 67.5t38 72.5q-24 7 -39 27t-15 46q0 32 21.5 54t54.5 22zM195 416v-242q0 -47 20 -73t71 -26q40 0 72 8v-76q-47 -18 -96 -18q-78 0 -118.5 49t-40.5 118v260h-78v84h78v131h92v-131h149v-84
h-149z" />
    <glyph glyph-name="Tbar" unicode="&#x166;" horiz-adv-x="583" 
d="M340 619v-217h142v-90h-142v-312h-97v312h-141v90h141v217h-223v95h543v-95h-223z" />
    <glyph glyph-name="tbar" unicode="&#x167;" horiz-adv-x="393" 
d="M286 75q40 0 72 8v-76q-47 -18 -96 -18q-78 0 -118.5 49t-40.5 118v96h-79v81h79v83h-78v84h78v131h92v-131h149v-84h-149v-83h150v-81h-150v-78q0 -47 20 -73t71 -26z" />
    <glyph glyph-name="Utilde" unicode="&#x168;" horiz-adv-x="730" 
d="M198 770h55q14 36 49 36q17 0 64 -20q48 -20 77 -20q44 0 72.5 27.5t35.5 64.5h-50q-9 -20 -21.5 -31.5t-35.5 -11.5q-12 0 -64 21q-45 18 -74 18q-41 0 -70.5 -25t-37.5 -59zM655 714v-433q0 -137 -82.5 -214.5t-208.5 -77.5q-122 0 -205.5 78t-83.5 214v433h97v-432
q0 -83 49.5 -140.5t143.5 -57.5t143.5 56.5t49.5 141.5v432h97z" />
    <glyph glyph-name="utilde" unicode="&#x169;" 
d="M133 563h55q14 36 49 36q17 0 64 -20t77 -20q44 0 72.5 27.5t35.5 64.5h-50q-9 -20 -21.5 -31.5t-35.5 -11.5q-11 0 -64 21q-45 18 -74 18q-41 0 -70.5 -25t-37.5 -59zM505 0h-92v41q-56 -56 -144 -56q-77 0 -135.5 54t-58.5 132v329h92v-310q0 -53 36.5 -86t86.5 -33
q53 0 88 33t35 76v320h92v-500z" />
    <glyph glyph-name="Umacron" unicode="&#x16a;" horiz-adv-x="730" 
d="M525 771h-320v60h320v-60zM655 714v-433q0 -137 -82.5 -214.5t-208.5 -77.5q-122 0 -205.5 78t-83.5 214v433h97v-432q0 -83 49.5 -140.5t143.5 -57.5t143.5 56.5t49.5 141.5v432h97z" />
    <glyph glyph-name="umacron" unicode="&#x16b;" 
d="M450 578h-320v60h320v-60zM505 0h-92v41q-56 -56 -144 -56q-77 0 -135.5 54t-58.5 132v329h92v-310q0 -53 36.5 -86t86.5 -33q53 0 88 33t35 76v320h92v-500z" />
    <glyph glyph-name="Uring" unicode="&#x16e;" horiz-adv-x="730" 
d="M367 963q41 0 69 -28t28 -69q0 -42 -28 -71t-69 -29q-42 0 -71 29t-29 71q0 41 29 69t71 28zM366 917q-22 0 -37.5 -15t-15.5 -36q0 -22 15.5 -37.5t37.5 -15.5t37 15.5t15 37.5q0 21 -15 36t-37 15zM655 714v-433q0 -137 -82.5 -214.5t-208.5 -77.5q-122 0 -205.5 78
t-83.5 214v433h97v-432q0 -83 49.5 -140.5t143.5 -57.5t143.5 56.5t49.5 141.5v432h97z" />
    <glyph glyph-name="uring" unicode="&#x16f;" 
d="M292 755q41 0 69 -28t28 -69q0 -42 -28 -71t-69 -29q-42 0 -71 29t-29 71q0 41 29 69t71 28zM291 709q-22 0 -37.5 -15t-15.5 -36q0 -22 15 -37.5t38 -15.5q22 0 37 15.5t15 37.5q0 21 -15 36t-37 15zM505 0h-92v41q-56 -56 -144 -56q-77 0 -135.5 54t-58.5 132v329h92
v-310q0 -53 36.5 -86t86.5 -33q53 0 88 33t35 76v320h92v-500z" />
    <glyph glyph-name="Uhungarumlaut" unicode="&#x170;" horiz-adv-x="730" 
d="M214 772h72l149 130h-135zM394 772h72l149 130h-135zM655 714v-433q0 -137 -82.5 -214.5t-208.5 -77.5q-122 0 -205.5 78t-83.5 214v433h97v-432q0 -83 49.5 -140.5t143.5 -57.5t143.5 56.5t49.5 141.5v432h97z" />
    <glyph glyph-name="uhungarumlaut" unicode="&#x171;" 
d="M122 578h72l149 130h-135zM302 578h72l149 130h-135zM505 0h-92v41q-56 -56 -144 -56q-77 0 -135.5 54t-58.5 132v329h92v-310q0 -53 36.5 -86t86.5 -33q53 0 88 33t35 76v320h92v-500z" />
    <glyph glyph-name="Uogonek" unicode="&#x172;" horiz-adv-x="730" 
d="M655 714v-433q0 -111 -56 -184t-148 -97q-10 -10 -22 -33.5t-12 -46.5q0 -27 17.5 -43.5t48.5 -16.5q30 0 66 12v-58q-41 -26 -93 -26q-51 0 -85 32t-34 81q0 48 33 88h-6q-122 0 -205.5 78t-83.5 214v433h97v-432q0 -83 49.5 -140.5t143.5 -57.5t143.5 56.5t49.5 141.5
v432h97z" />
    <glyph glyph-name="uogonek" unicode="&#x173;" 
d="M537 -140q30 0 66 12v-58q-41 -26 -93 -26q-51 0 -85 32t-34 81q0 32 14.5 59t27.5 40h-20v41q-56 -56 -144 -56q-77 0 -135.5 54t-58.5 132v329h92v-310q0 -53 36.5 -86t86.5 -33q53 0 88 33t35 76v320h92v-500q-9 -9 -21.5 -33t-12.5 -47q0 -27 17.5 -43.5t48.5 -16.5z
" />
    <glyph glyph-name="Wcircumflex" unicode="&#x174;" horiz-adv-x="1011" 
d="M671 771h-105l-60 76l-61 -76h-105l139 130h53zM755 0h-101l-149 507l-151 -507h-101l-228 714h103l178 -564l148 502l103 -1l150 -501l175 564h104z" />
    <glyph glyph-name="wcircumflex" unicode="&#x175;" horiz-adv-x="797" 
d="M564 578h-105l-60 76l-61 -76h-105l139 130h53zM615 0h-119l-98 326l-99 -326h-119l-170 500h99l132 -399l109 363l97 -1l110 -362l131 399h99z" />
    <glyph glyph-name="Ycircumflex" unicode="&#x176;" horiz-adv-x="567" 
d="M449 771h-105l-60 76l-61 -76h-105l139 130h53zM330 267v-267h-94v267l-221 446h109l160 -332l162 332h106z" />
    <glyph glyph-name="ycircumflex" unicode="&#x177;" horiz-adv-x="506" 
d="M421 577h-105l-60 76l-61 -76h-105l139 130h53zM486 500l-184 -532q-24 -74 -58 -112t-93 -38q-44 0 -75 11v78q26 -7 55 -7q41 0 57.5 27t22.5 68l-188 505h107l130 -379l124 379h102z" />
    <glyph glyph-name="Ydieresis" unicode="&#x178;" horiz-adv-x="567" 
d="M184 891q27 0 44.5 -18t17.5 -44q0 -27 -17.5 -45t-44.5 -18t-44.5 18t-17.5 45q0 26 17.5 44t44.5 18zM384 891q26 0 44 -18.5t18 -43.5q0 -27 -18 -45t-44 -18q-27 0 -45 18t-18 45q0 26 18 44t45 18zM330 267v-267h-94v267l-221 446h109l160 -332l162 332h106z" />
    <glyph glyph-name="Zacute" unicode="&#x179;" horiz-adv-x="601" 
d="M255 770h72l149 130h-135zM565 620l-403 -528h414v-92h-541v84l412 534h-377v96h495v-94z" />
    <glyph glyph-name="zacute" unicode="&#x17a;" horiz-adv-x="489" 
d="M191 577h72l149 130h-135zM444 422l-287 -332h297v-90h-419v76l287 334h-255v90h377v-78z" />
    <glyph glyph-name="Zdotaccent" unicode="&#x17b;" horiz-adv-x="601" 
d="M322 891q26 0 44 -18.5t18 -43.5q0 -27 -18 -45t-44 -18q-27 0 -45 18t-18 45q0 26 18 44t45 18zM565 620l-403 -528h414v-92h-541v84l412 534h-377v96h495v-94z" />
    <glyph glyph-name="zdotaccent" unicode="&#x17c;" horiz-adv-x="489" 
d="M255 683q25 0 43.5 -18.5t18.5 -43.5q0 -27 -18 -45t-44 -18q-27 0 -45 18t-18 45q0 26 18 44t45 18zM444 422l-287 -332h297v-90h-419v76l287 334h-255v90h377v-78z" />
    <glyph glyph-name="Zcaron" unicode="&#x17d;" horiz-adv-x="601" 
d="M342 772h-53l-139 130h105l61 -76l60 76h105zM565 620l-403 -528h414v-92h-541v84l412 534h-377v96h495v-94z" />
    <glyph glyph-name="zcaron" unicode="&#x17e;" horiz-adv-x="489" 
d="M281 578h-53l-139 130h105l61 -76l60 76h105zM444 422l-287 -332h297v-90h-419v76l287 334h-255v90h377v-78z" />
    <glyph glyph-name="florin" unicode="&#x192;" horiz-adv-x="480" 
d="M455 416h-175v-430q0 -69 -40.5 -118t-118.5 -49q-49 0 -96 18v79q44 -11 72 -11q51 0 71 26t20 73v412h-95v84h95v66q0 69 40.5 118t118.5 49q49 0 96 -18v-79q-44 11 -72 11q-51 0 -71 -26t-20 -73v-48h175v-84z" />
    <glyph glyph-name="Acaron" unicode="&#x1cd;" horiz-adv-x="654" 
d="M353 772h-53l-139 130h105l61 -76l60 76h105zM627 0h-105l-52 153h-286l-53 -153h-104l248 714h101zM217 251h220l-109 321z" />
    <glyph glyph-name="acaron" unicode="&#x1ce;" horiz-adv-x="519" 
d="M290 577h-53l-139 130h105l61 -76l60 76h105zM47 371l94 -13q11 29 40.5 49.5t73.5 20.5q50 0 83.5 -29.5t33.5 -76.5l-137 -20q-197 -28 -197 -162q0 -68 50 -110t126 -42q86 0 151 65h7v-53h92v325q0 81 -56 135.5t-151 54.5q-85 0 -141.5 -47t-68.5 -97zM373 245v-39
q0 -43 -7 -58q-14 -30 -51.5 -53t-85.5 -23q-42 0 -67 19.5t-25 49.5q0 39 26.5 56t77.5 27q25 5 77.5 13t54.5 8z" />
    <glyph glyph-name="Icaron" unicode="&#x1cf;" horiz-adv-x="267" 
d="M160 772h-53l-139 130h105l61 -76l60 76h105zM182 0h-97v714h97v-714z" />
    <glyph glyph-name="icaron" unicode="&#x1d0;" horiz-adv-x="281" 
d="M167 578h-53l-139 130h105l61 -76l60 76h105zM187 0h-92v500h92v-500z" />
    <glyph glyph-name="Ocaron" unicode="&#x1d1;" horiz-adv-x="810" 
d="M431 772h-53l-139 130h105l61 -76l60 76h105zM405 734q157 0 263.5 -108t106.5 -266q0 -157 -107.5 -264.5t-262.5 -107.5t-262.5 107.5t-107.5 264.5q0 158 106.5 266t263.5 108zM405 641q-110 0 -186 -81t-76 -200q0 -118 75.5 -198.5t186.5 -80.5t186.5 80.5
t75.5 198.5q0 119 -76 200t-186 81z" />
    <glyph glyph-name="ocaron" unicode="&#x1d2;" horiz-adv-x="593" 
d="M323 578h-53l-139 130h105l61 -76l60 76h105zM296 515q111 0 186.5 -76t75.5 -188q0 -111 -75.5 -187t-186.5 -76q-110 0 -185.5 76t-75.5 187q0 112 75.5 188t185.5 76zM297 430q-71 0 -118.5 -51t-47.5 -128q0 -76 47.5 -127t118.5 -51t118.5 51t47.5 127
q0 77 -47.5 128t-118.5 51z" />
    <glyph glyph-name="Gcaron" unicode="&#x1e6;" horiz-adv-x="775" 
d="M448 772h-53l-139 130h105l61 -76l60 76h105zM405 734q98 0 178 -45.5t130 -124.5l-87 -50q-36 59 -94 93t-127 34q-110 0 -186 -81t-76 -200q0 -118 75.5 -198.5t186.5 -80.5q86 0 150.5 58.5t75.5 140.5h-185v90h293q2 -35 0 -67q-4 -77 -46 -148.5t-120 -119
t-171 -47.5q-155 0 -261 107.5t-106 264.5q0 158 106.5 266t263.5 108z" />
    <glyph glyph-name="gcaron" unicode="&#x1e7;" horiz-adv-x="595" 
d="M320 578h-53l-139 130h105l61 -76l60 76h105zM418 78v-71q0 -47 -36 -75t-89 -28q-54 0 -87 20.5t-44 51.5l-94 -15q16 -56 73.5 -99t152.5 -43q97 0 156.5 57t59.5 141v483h-92v-48q-67 63 -145 63q-96 0 -162 -75t-66 -175t66 -174.5t162 -74.5q71 0 139 62h6zM140 267
q0 68 41 112t98 44q60 0 100.5 -44.5t40.5 -112.5q0 -71 -40 -113.5t-101 -42.5q-58 0 -98.5 43t-40.5 114z" />
    <glyph glyph-name="Oslashacute" unicode="&#x1fe;" horiz-adv-x="881" 
d="M457 770h-72l86 130h135zM848 714l-117 -118q80 -102 80 -236q0 -157 -107.5 -264.5t-262.5 -107.5q-132 0 -231 80l-67 -68h-110l121 123q-83 101 -83 237q0 158 106.5 266t263.5 108q134 0 235 -82l62 62h110zM179 360q0 -90 48 -164l379 384q-72 61 -165 61
q-110 0 -186 -81t-76 -200zM703 360q0 91 -45 161l-378 -383q70 -57 161 -57q111 0 186.5 80.5t75.5 198.5z" />
    <glyph glyph-name="oslashacute" unicode="&#x1ff;" horiz-adv-x="578" 
d="M306 578h-72l86 130h135zM593 501l-92 -92q50 -69 50 -158q0 -111 -75.5 -187t-186.5 -76q-87 0 -156 51l-39 -39h-109l93 94q-50 67 -50 157q0 112 75.5 188t185.5 76q88 0 158 -51l37 37h109zM121 251q0 -51 23 -92l240 242q-43 30 -95 30q-71 0 -119.5 -52t-48.5 -128
zM457 251q0 50 -22 91l-240 -241q43 -29 94 -29q71 0 119.5 51.5t48.5 127.5z" />
    <glyph glyph-name="Scommaaccent" unicode="&#x218;" horiz-adv-x="614" 
d="M305 429l67 -20q201 -61 201 -203q0 -96 -76 -157t-181 -61q-66 0 -121 20t-89.5 52.5t-55.5 66.5t-30 68l101 23q21 -56 69 -96.5t125 -40.5q65 0 111 34t46 83q0 48 -39.5 76.5t-112.5 47.5l-83 22q-74 19 -125.5 67t-51.5 119q0 87 69 145.5t170 58.5q98 0 168 -54.5
t89 -140.5l-98 -18q-14 49 -54 85t-105 36q-58 0 -96.5 -28.5t-38.5 -76.5q0 -42 34.5 -64t106.5 -44zM320 -44q31 0 53 -22t22 -54t-15 -63q-42 -85 -162 -170l-17 20q31 28 59 67.5t38 72.5q-24 7 -39 27t-15 46q0 32 21.5 54t54.5 22z" />
    <glyph glyph-name="scommaaccent" unicode="&#x219;" horiz-adv-x="481" 
d="M239 300l56 -17q62 -19 99.5 -50t37.5 -90q0 -68 -57.5 -112t-137.5 -43q-87 1 -145 44t-77 104l90 23q33 -87 138 -87q40 0 69 18.5t29 45.5q0 31 -22.5 46.5t-70.5 28.5l-60 16q-146 40 -146 138q0 64 53.5 107t129.5 43q79 0 133.5 -43t67.5 -96l-86 -19
q-31 75 -118 75q-36 0 -60.5 -19t-24.5 -46q0 -7 1.5 -12.5t5.5 -10.5t7.5 -9t11 -8t12 -6t15 -5.5l15 -5t17 -5.5t17.5 -5zM254 -44q31 0 53 -22t22 -54t-15 -63q-42 -85 -162 -170l-17 20q31 28 59 67.5t38 72.5q-24 7 -39 27t-15 46q0 32 21.5 54t54.5 22z" />
    <glyph glyph-name="uni021A" unicode="&#x21a;" horiz-adv-x="583" 
d="M563 714v-95h-223v-619h-97v619h-223v95h543zM290 -34q31 0 53 -22t22 -54t-15 -63q-42 -85 -162 -170l-17 20q31 28 59 67.5t38 72.5q-24 7 -39 27t-15 46q0 32 21.5 54t54.5 22z" />
    <glyph glyph-name="uni021B" unicode="&#x21b;" horiz-adv-x="393" 
d="M286 75q40 0 72 8v-76q-47 -18 -96 -18q-78 0 -118.5 49t-40.5 118v260h-78v84h78v131h92v-131h149v-84h-149v-242q0 -47 20 -73t71 -26zM254 -44q31 0 53 -22t22 -54t-15 -63q-42 -85 -162 -170l-17 20q31 28 59 67.5t38 72.5q-24 7 -39 27t-15 46q0 32 21.5 54t54.5 22
z" />
    <glyph glyph-name="uni02BC" unicode="&#x2bc;" horiz-adv-x="600" 
 />
    <glyph glyph-name="circumflex" unicode="&#x2c6;" horiz-adv-x="401" 
d="M366 772h-105l-60 76l-61 -76h-105l139 130h53z" />
    <glyph glyph-name="caron" unicode="&#x2c7;" horiz-adv-x="441" 
d="M247 772h-53l-139 130h105l61 -76l60 76h105z" />
    <glyph glyph-name="breve" unicode="&#x2d8;" horiz-adv-x="320" 
d="M305 907h-56q0 -30 -24.5 -54.5t-63.5 -24.5q-41 0 -65.5 24t-24.5 55h-56q0 -55 40.5 -96t106.5 -41q63 0 103 41.5t40 95.5z" />
    <glyph glyph-name="dotaccent" unicode="&#x2d9;" horiz-adv-x="155" 
d="M78 895q26 0 44 -18.5t18 -43.5q0 -27 -18 -45t-44 -18q-27 0 -45 18t-18 45q0 26 18 44t45 18z" />
    <glyph glyph-name="ring" unicode="&#x2da;" horiz-adv-x="267" 
d="M135 959q41 0 69 -28t28 -69q0 -42 -28 -71t-69 -29q-42 0 -71 29t-29 71q0 41 29 69t71 28zM134 913q-22 0 -37.5 -15t-15.5 -36q0 -22 15.5 -37.5t37.5 -15.5t37 15.5t15 37.5q0 21 -15 36t-37 15z" />
    <glyph glyph-name="ogonek" unicode="&#x2db;" horiz-adv-x="242" 
d="M57 0h72q-9 -9 -21.5 -33t-12.5 -47q0 -27 17.5 -43.5t48.5 -16.5q30 0 66 12v-58q-41 -26 -93 -26q-51 0 -85 32t-34 81q0 32 14.5 59t27.5 40z" />
    <glyph glyph-name="tilde" unicode="&#x2dc;" horiz-adv-x="423" 
d="M35 784h55q14 36 49 36q17 0 64 -20q48 -20 77 -20q44 0 72.5 27.5t35.5 64.5h-50q-9 -20 -21.5 -31.5t-35.5 -11.5q-11 0 -64 21q-45 18 -74 18q-41 0 -70.5 -25t-37.5 -59z" />
    <glyph glyph-name="hungarumlaut" unicode="&#x2dd;" horiz-adv-x="431" 
d="M15 770h72l149 130h-135zM195 770h72l149 130h-135z" />
    <glyph glyph-name="Delta" unicode="&#x394;" horiz-adv-x="725" 
d="M662 75v-75h-627v75l271 636h85zM123 75h452l-226 542z" />
    <glyph glyph-name="Omega" unicode="&#x3a9;" horiz-adv-x="850" 
d="M425 641q-110 0 -186 -81t-76 -200q0 -96 57.5 -173t143.5 -102v-85h-292v75h151q-66 33 -117 114t-51 171q0 158 106.5 266t263.5 108t263.5 -108t106.5 -266q0 -90 -51 -171t-117 -114h151v-75h-292v85q86 25 143.5 102t57.5 173q0 119 -76 200t-186 81z" />
    <glyph glyph-name="mu" unicode="&#x3bc;" 
d="M505 500v-500h-92v41q-56 -56 -144 -56q-56 0 -102 29v-195h-92v681h92v-310q0 -53 36.5 -86t86.5 -33q53 0 88 33t35 76v320h92z" />
    <glyph glyph-name="pi" unicode="&#x3c0;" horiz-adv-x="763" 
d="M559 409v-268q0 -34 12 -53.5t38 -35.5l-53 -67q-89 27 -89 140v284h-155v-409h-92v409q-31 -4 -57.5 -29.5t-33.5 -52.5l-84 59q12 47 55.5 81t97.5 34h470v-92h-109z" />
    <glyph glyph-name="uni1DC4" unicode="&#x1dc4;" horiz-adv-x="0" 
 />
    <glyph glyph-name="uni1DC5" unicode="&#x1dc5;" horiz-adv-x="0" 
 />
    <glyph glyph-name="uni1DC6" unicode="&#x1dc6;" horiz-adv-x="0" 
 />
    <glyph glyph-name="uni1DC7" unicode="&#x1dc7;" horiz-adv-x="0" 
 />
    <glyph glyph-name="Idieresisacute" unicode="&#x1e2e;" horiz-adv-x="267" 
d="M85 940h72l149 130h-135zM34 896q27 0 44.5 -18t17.5 -44q0 -27 -17.5 -45t-44.5 -18t-44.5 18t-17.5 45q0 26 17.5 44t44.5 18zM234 896q26 0 44 -18t18 -44q0 -27 -18 -45t-44 -18q-27 0 -45 18t-18 45q0 26 18 44t45 18zM182 0h-97v714h97v-714z" />
    <glyph glyph-name="idieresisacute" unicode="&#x1e2f;" horiz-adv-x="274" 
d="M63 714h72l149 130h-135zM37 682q27 0 44.5 -18t17.5 -44q0 -27 -17.5 -45t-44.5 -18t-44.5 18t-17.5 45q0 26 17.5 44t44.5 18zM237 682q25 0 43.5 -18t18.5 -44q0 -27 -18 -45t-44 -18q-27 0 -45 18t-18 45q0 26 18 44t45 18zM183 0v500h-92v-500h92z" />
    <glyph glyph-name="Macute" unicode="&#x1e3e;" horiz-adv-x="859" 
d="M365 771h72l149 130h-135zM182 0v548h2l208 -408h76l207 413h2v-553h97v714h-127l-212 -437h-2l-222 437h-126v-714h97z" />
    <glyph glyph-name="macute" unicode="&#x1e3f;" horiz-adv-x="938" 
d="M410 578h72l149 130h-135zM655 515q78 0 138 -54t60 -132v-329h-92v311q0 53 -36.5 85t-86.5 32q-56 0 -89.5 -31t-33.5 -74v-323h-92v310q0 53 -36.5 85.5t-86.5 32.5q-56 0 -89.5 -31.5t-33.5 -73.5v-323h-92v500h92v-41q56 56 144 56q96 0 155 -75q77 75 179 75z" />
    <glyph glyph-name="Otildeacute" unicode="&#x1e4c;" horiz-adv-x="810" 
d="M352 903h72l149 130h-135zM228 773h55q14 36 49 36q17 0 64 -20t77 -20q44 0 72.5 27.5t35.5 64.5h-50q-9 -20 -21.5 -31.5t-35.5 -11.5q-12 0 -64 21q-45 18 -74 18q-41 0 -70.5 -25t-37.5 -59zM405 734q157 0 263.5 -108t106.5 -266q0 -157 -107.5 -264.5
t-262.5 -107.5t-262.5 107.5t-107.5 264.5q0 158 106.5 266t263.5 108zM405 641q-110 0 -186 -81t-76 -200q0 -118 75.5 -198.5t186.5 -80.5t186.5 80.5t75.5 198.5q0 119 -76 200t-186 81z" />
    <glyph glyph-name="otildeacute" unicode="&#x1e4d;" horiz-adv-x="593" 
d="M250 703h72l149 130h-135zM120 562h55q14 36 49 36q17 0 64 -20q48 -20 77 -20q44 0 72.5 27.5t35.5 64.5h-50q-9 -20 -21.5 -31.5t-35.5 -11.5q-12 0 -64 21q-45 18 -74 18q-41 0 -70.5 -25t-37.5 -59zM296 515q111 0 186.5 -76t75.5 -188q0 -111 -75.5 -187t-186.5 -76
q-110 0 -185.5 76t-75.5 187q0 112 75.5 188t185.5 76zM297 430q-71 0 -118.5 -51t-47.5 -128q0 -76 47.5 -127t118.5 -51t118.5 51t47.5 127q0 77 -47.5 128t-118.5 51z" />
    <glyph glyph-name="Wgrave" unicode="&#x1e80;" horiz-adv-x="1011" 
d="M566 771h-72l-149 130h135zM755 0h-101l-149 507l-151 -507h-101l-228 714h103l178 -564l148 502l103 -1l150 -501l175 564h104z" />
    <glyph glyph-name="wgrave" unicode="&#x1e81;" horiz-adv-x="797" 
d="M468 577h-72l-149 130h135zM615 0h-119l-98 326l-99 -326h-119l-170 500h99l132 -399l109 363l97 -1l110 -362l131 399h99z" />
    <glyph glyph-name="Wacute" unicode="&#x1e82;" horiz-adv-x="1011" 
d="M445 771h72l149 130h-135zM755 0h-101l-149 507l-151 -507h-101l-228 714h103l178 -564l148 502l103 -1l150 -501l175 564h104z" />
    <glyph glyph-name="wacute" unicode="&#x1e83;" horiz-adv-x="797" 
d="M337 577h72l149 130h-135zM615 0h-119l-98 326l-99 -326h-119l-170 500h99l132 -399l109 363l97 -1l110 -362l131 399h99z" />
    <glyph glyph-name="Wdieresis" unicode="&#x1e84;" horiz-adv-x="1011" 
d="M406 890q27 0 44.5 -18t17.5 -44q0 -27 -17.5 -45t-44.5 -18t-44.5 18t-17.5 45q0 26 17.5 44t44.5 18zM606 890q26 0 44 -18t18 -44q0 -27 -18 -45t-44 -18q-27 0 -45 18t-18 45q0 26 18 44t45 18zM755 0h-101l-149 507l-151 -507h-101l-228 714h103l178 -564l148 502
l103 -1l150 -501l175 564h104z" />
    <glyph glyph-name="wdieresis" unicode="&#x1e85;" horiz-adv-x="797" 
d="M299 683q27 0 44.5 -18t17.5 -44q0 -27 -17.5 -45t-44.5 -18t-44.5 18t-17.5 45q0 26 17.5 44t44.5 18zM499 683q25 0 43.5 -18.5t18.5 -43.5q0 -27 -18 -45t-44 -18q-27 0 -45 18t-18 45q0 26 18 44t45 18zM615 0h-119l-98 326l-99 -326h-119l-170 500h99l132 -399
l109 363l97 -1l110 -362l131 399h99z" />
    <glyph glyph-name="Etilde" unicode="&#x1ebc;" horiz-adv-x="597" 
d="M140 770h55q14 36 49 36q17 0 64 -20q48 -20 77 -20q44 0 72.5 27.5t35.5 64.5h-50q-9 -20 -21.5 -31.5t-35.5 -11.5q-12 0 -64 21q-45 18 -74 18q-41 0 -70.5 -25t-37.5 -59zM546 617h-364v-211h337v-96h-337v-214h370v-96h-467v714h461v-97z" />
    <glyph glyph-name="etilde" unicode="&#x1ebd;" horiz-adv-x="577" 
d="M113 563h55q14 36 49 36q17 0 64 -20t77 -20q44 0 72.5 27.5t35.5 64.5h-50q-9 -20 -21.5 -31.5t-35.5 -11.5q-11 0 -64 21q-45 18 -74 18q-41 0 -70.5 -25t-37.5 -59zM293 515q106 0 176.5 -74t70.5 -184q0 -15 -2 -39h-399q-1 -59 45.5 -102.5t114.5 -43.5q87 0 139 78
l80 -38q-35 -57 -93 -90.5t-128 -33.5q-115 0 -188.5 73.5t-72.5 189.5q1 112 74 188t183 76zM293 431q-63 0 -106 -37t-50 -98h306q-8 60 -49 97.5t-101 37.5z" />
    <glyph glyph-name="Ygrave" unicode="&#x1ef2;" horiz-adv-x="568" 
d="M336 771h-72l-149 130h135zM330 267v-267h-94v267l-221 446h109l160 -332l162 332h106z" />
    <glyph glyph-name="ygrave" unicode="&#x1ef3;" horiz-adv-x="506" 
d="M329 578h-72l-149 130h135zM486 500l-184 -532q-24 -74 -58 -112t-93 -38q-44 0 -75 11v78q26 -7 55 -7q41 0 57.5 27t22.5 68l-188 505h107l130 -379l124 379h102z" />
    <glyph glyph-name="endash" unicode="&#x2013;" horiz-adv-x="641" 
d="M75 213h491v85h-491v-85z" />
    <glyph glyph-name="emdash" unicode="&#x2014;" horiz-adv-x="901" 
d="M75 213h751v85h-751v-85z" />
    <glyph glyph-name="quoteleft" unicode="&#x2018;" horiz-adv-x="294" 
d="M232 735l17 -20q-31 -28 -59 -67.5t-38 -72.5q24 -7 39 -27t15 -46q0 -32 -21.5 -54t-54.5 -22q-31 0 -53 22t-22 54t15 63q42 85 162 170z" />
    <glyph glyph-name="quoteright" unicode="&#x2019;" horiz-adv-x="294" 
d="M164 733q31 0 53 -22t22 -54t-15 -63q-42 -85 -162 -170l-17 20q31 28 59 67.5t38 72.5q-24 7 -39 27t-15 46q0 32 21.5 54t54.5 22z" />
    <glyph glyph-name="quotesinglbase" unicode="&#x201a;" horiz-adv-x="294" 
d="M164 143q32 0 54 -21.5t22 -52.5q0 -36 -18 -72q-46 -90 -150 -163l-27 23q32 29 59.5 67t37.5 70q-24 7 -39 27t-15 46q0 32 21.5 54t54.5 22z" />
    <glyph glyph-name="quotedblleft" unicode="&#x201c;" horiz-adv-x="504" 
d="M70 565q42 85 162 170l17 -20q-31 -28 -59 -67.5t-38 -72.5q24 -7 39 -27t15 -46q0 -32 -21.5 -54t-54.5 -22q-31 0 -53 22t-22 54t15 63zM442 735l17 -20q-31 -28 -59 -67.5t-38 -72.5q24 -7 39 -27t15 -46q0 -32 -21.5 -54t-54.5 -22q-31 0 -53 22t-22 54t15 63
q42 85 162 170z" />
    <glyph glyph-name="quotedblright" unicode="&#x201d;" horiz-adv-x="504" 
d="M164 733q31 0 53 -22t22 -54t-15 -63q-42 -85 -162 -170l-17 20q31 28 59 67.5t38 72.5q-24 7 -39 27t-15 46q0 32 21.5 54t54.5 22zM374 733q31 0 53 -22t22 -54t-15 -63q-42 -85 -162 -170l-17 20q31 28 59 67.5t38 72.5q-24 7 -39 27t-15 46q0 32 21.5 54t54.5 22z
" />
    <glyph glyph-name="quotedblbase" unicode="&#x201e;" horiz-adv-x="494" 
d="M154 143q31 0 53 -22t22 -54t-15 -63q-42 -85 -162 -170l-17 20q31 28 59 67.5t38 72.5q-24 7 -39 27t-15 46q0 32 21.5 54t54.5 22zM364 143q31 0 53 -22t22 -54t-15 -63q-42 -85 -162 -170l-17 20q31 28 59 67.5t38 72.5q-24 7 -39 27t-15 46q0 32 21.5 54t54.5 22z
" />
    <glyph glyph-name="dagger" unicode="&#x2020;" horiz-adv-x="435" 
d="M360 430h-105v-430h-75v430h-105v75h105v209h75v-209h105v-75z" />
    <glyph glyph-name="daggerdbl" unicode="&#x2021;" horiz-adv-x="435" 
d="M255 430v-105h105v-75h-105v-250h-75v250h-105v75h105v105h-105v75h105v209h75v-209h105v-75h-105z" />
    <glyph glyph-name="bullet" unicode="&#x2022;" horiz-adv-x="418" 
d="M115 281q0 -36 28.5 -65t65.5 -29q40 0 67 27.5t27 66.5q0 40 -27 67t-67 27q-39 0 -66.5 -27t-27.5 -67z" />
    <glyph glyph-name="ellipsis" unicode="&#x2026;" horiz-adv-x="741" 
d="M55 67q0 -32 21.5 -54t54.5 -22q32 0 53.5 22t21.5 54t-22 54t-53 22q-33 0 -54.5 -22t-21.5 -54zM295 67q0 -32 21.5 -54t54.5 -22q32 0 53.5 22t21.5 54t-22 54t-53 22q-33 0 -54.5 -22t-21.5 -54zM535 67q0 -32 21.5 -54t54.5 -22q32 0 53.5 22t21.5 54t-22 54t-53 22
q-33 0 -54.5 -22t-21.5 -54z" />
    <glyph glyph-name="perthousand" unicode="&#x2030;" horiz-adv-x="1267" 
d="M201 734q74 0 125 -57.5t51 -142.5t-51 -142.5t-125 -57.5q-73 0 -123 57.5t-50 142.5t50 142.5t123 57.5zM235 0h-87l487 714h85zM203 664q-40 0 -67.5 -37.5t-27.5 -93.5q0 -55 27.5 -92t67.5 -37t67 37t27 92t-27 93t-67 38zM663 388q74 0 125 -57.5t51 -142.5
t-51 -142.5t-125 -57.5q-73 0 -123 57.5t-50 142.5t50 142.5t123 57.5zM1063 388q74 0 125 -57.5t51 -142.5t-51 -142.5t-125 -57.5q-73 0 -123 57.5t-50 142.5t50 142.5t123 57.5zM665 318q-40 0 -67.5 -37.5t-27.5 -93.5q0 -55 27.5 -92t67.5 -37t67 37t27 92t-27 93
t-67 38zM1065 318q-40 0 -67.5 -37.5t-27.5 -93.5q0 -55 27.5 -92t67.5 -37t67 37t27 92t-27 93t-67 38z" />
    <glyph glyph-name="guilsinglleft" unicode="&#x2039;" horiz-adv-x="524" 
d="M489 473v92l-454 -204v-87l454 -203v92l-352 155z" />
    <glyph glyph-name="guilsinglright" unicode="&#x203a;" horiz-adv-x="524" 
d="M489 361v-87l-454 -203v92l352 155l-352 155v92z" />
    <glyph glyph-name="fraction" unicode="&#x2044;" horiz-adv-x="427" 
d="M422 714l-330 -714h-87l330 714h87z" />
    <glyph glyph-name="Euro" unicode="&#x20ac;" horiz-adv-x="654" 
d="M587 125l37 -74q-94 -63 -203 -63q-122 0 -213 66t-123 177h-70v76h56q-2 24 -2 37q0 12 2 36h-55v76h69q33 112 122.5 180.5t209.5 68.5q101 0 190 -54l-45 -79q-67 37 -151 37q-72 0 -133 -41t-91 -112h339l-34 -76h-325q-2 -22 -2 -35q0 -20 3 -38h310l-31 -76h-257
q32 -69 96 -109.5t139 -40.5q88 0 162 44z" />
    <glyph glyph-name="trademark" unicode="&#x2122;" horiz-adv-x="778" 
d="M35 711v-68h112v-289h70v289h114v68h-296zM441 354v246l76 -165h60l75 165v-246h71v357h-90l-83 -191l-91 191h-88v-357h70z" />
    <glyph glyph-name="arrowleft" unicode="&#x2190;" horiz-adv-x="864" 
d="M789 213l-593 1l106 -106v-122l-227 228v84l227 227v-122l-106 -105h593v-85z" />
    <glyph glyph-name="arrowup" unicode="&#x2191;" horiz-adv-x="689" 
d="M492 487l-105 106v-593h-85v593l-105 -106h-122l227 227h85l227 -227h-122z" />
    <glyph glyph-name="arrowright" unicode="&#x2192;" horiz-adv-x="864" 
d="M789 298v-84l-227 -228v122l106 106l-593 -1v85h593l-106 105v122z" />
    <glyph glyph-name="arrowdown" unicode="&#x2193;" horiz-adv-x="689" 
d="M614 227l-227 -227h-85l-227 227h122l105 -106v593h85v-593l105 106h122z" />
    <glyph glyph-name="arrowboth" unicode="&#x2194;" horiz-adv-x="864" 
d="M789 298v-84l-227 -228v122l106 106l-471 -1l105 -105v-122l-227 227v85l227 227v-122l-106 -105h472l-106 105v122z" />
    <glyph glyph-name="arrowupdn" unicode="&#x2195;" horiz-adv-x="689" 
d="M492 227h122l-227 -227h-85l-227 227h122l105 -106v472l-105 -106h-122l227 227h85l227 -227h-122l-105 106v-472z" />
    <glyph glyph-name="arrowupleft" unicode="&#x2196;" horiz-adv-x="714" 
d="M579 150l-419 420l1 -150l-86 -86v321l60 58l-1 2h322l-87 -86h-150l420 -419z" />
    <glyph glyph-name="arrowupright" unicode="&#x2197;" horiz-adv-x="714" 
d="M639 655v-321l-86 86l1 150l-419 -420l-60 60l420 419h-150l-87 86h322v-1z" />
    <glyph glyph-name="arrowdownright" unicode="&#x2198;" horiz-adv-x="714" 
d="M639 381v-321l-59 -60h-322l87 86h149l-419 419l60 60l419 -420l-1 150z" />
    <glyph glyph-name="arrowdownleft" unicode="&#x2199;" horiz-adv-x="714" 
d="M369 86l87 -86h-322l-59 60v321l86 -86l-1 -150l419 420l60 -60l-419 -419h149z" />
    <glyph glyph-name="partialdiff" unicode="&#x2202;" horiz-adv-x="600" 
 />
    <glyph glyph-name="emptyset" unicode="&#x2205;" horiz-adv-x="817" 
d="M782 726l-110 -128q89 -99 89 -240q0 -153 -101 -254.5t-252 -101.5q-110 0 -198 58l-60 -70h-115l109 127q-88 99 -88 241q0 152 101.5 254t250.5 102q111 0 198 -59l61 71h115zM148 358q0 -98 58 -169l339 395q-62 38 -137 38q-111 0 -185.5 -75.5t-74.5 -188.5z
M669 358q0 98 -58 169l-339 -395q60 -37 136 -37q111 0 186 75t75 188z" />
    <glyph glyph-name="product" unicode="&#x220f;" horiz-adv-x="721" 
d="M686 639h-106v-874h-76v874h-287v-874h-76v874h-106v75h651v-75z" />
    <glyph glyph-name="summation" unicode="&#x2211;" horiz-adv-x="684" 
d="M148 639h501v74l-604 1v-75l292 -360l-292 -419v-76l604 1v75h-506l293 419z" />
    <glyph glyph-name="minus" unicode="&#x2212;" 
d="M65 244h460v74h-460v-74z" />
    <glyph glyph-name="radical" unicode="&#x221a;" horiz-adv-x="696" 
d="M126 439h-91v75h141l127 -395l291 774h77l-337 -893h-64z" />
    <glyph glyph-name="infinity" unicode="&#x221e;" horiz-adv-x="903" 
d="M434 356q103 80 199 80q87 0 146 -57.5t59 -142.5q0 -88 -60 -143.5t-141 -55.5q-42 0 -81 17t-56.5 32t-30.5 31q-103 -80 -199 -80q-87 0 -146 57.5t-59 142.5q0 88 60 143.5t141 55.5q42 0 81 -17t57 -32.5t30 -30.5zM275 132q81 0 151 68l-19 39q-22 44 -57 73
t-80 29q-43 0 -74.5 -29t-31.5 -75t33.5 -75.5t77.5 -29.5zM628 341q-81 0 -151 -68l19 -39q22 -44 57 -73t80 -29q43 0 74.5 29t31.5 75t-33.5 75.5t-77.5 29.5z" />
    <glyph glyph-name="integral" unicode="&#x222b;" horiz-adv-x="468" 
d="M347 733q49 0 96 -18v-79q-44 11 -72 11q-51 0 -71 -26t-20 -73v-562q0 -69 -40.5 -118t-118.5 -49q-49 0 -96 18v79q44 -11 72 -11q51 0 71 26t20 73v562q0 69 40.5 118t118.5 49z" />
    <glyph glyph-name="approxequal" unicode="&#x2248;" horiz-adv-x="665" 
d="M580 428v-93q-55 55 -136 55q-38 0 -106 -26t-110 -26q-86 0 -143 46v93q63 -50 141 -50q44 0 111.5 26t106.5 26q85 0 136 -51zM580 245v-93q-55 55 -136 55q-38 0 -106 -26t-110 -26q-86 0 -143 46v93q63 -50 141 -50q44 0 111.5 26t106.5 26q85 0 136 -51z" />
    <glyph glyph-name="notequal" unicode="&#x2260;" 
d="M364 318l-51 -74h212v-74h-263l-84 -121h-85l84 121h-112v74h163l51 74h-214v74h266l82 119h85l-82 -119h109v-74h-161z" />
    <glyph glyph-name="lessequal" unicode="&#x2264;" 
d="M524 528v92l-459 -174v-87l459 -173v92l-357 125zM65 139v-74h460v74h-460z" />
    <glyph glyph-name="greaterequal" unicode="&#x2265;" 
d="M66 278v-92l459 173v87l-459 174v-92l357 -125zM65 65h460v74h-460v-74z" />
    <glyph glyph-name="lozenge" unicode="&#x25ca;" horiz-adv-x="595" 
d="M335 0h-78l-190 357l190 357h78l193 -357zM297 78l148 279l-148 279l-147 -279z" />
    <glyph glyph-name="fi" unicode="&#xfb01;" horiz-adv-x="612" 
d="M524 500v-500h-92v416h-220v-416h-92v416h-95v84h95v66q0 69 40.5 118t118.5 49q49 0 96 -18v-79q-44 11 -72 11q-51 0 -71 -26t-20 -73v-48h312zM478 711q28 0 48.5 -20.5t20.5 -48.5q0 -30 -20 -50t-49 -20q-30 0 -50 20t-20 50q0 29 20 49t50 20z" />
    <glyph glyph-name="fl" unicode="&#xfb02;" horiz-adv-x="655" 
d="M530 0h-92v734h92v-734zM274 733q49 0 96 -18v-79q-44 11 -72 11q-51 0 -71 -26t-20 -73v-48h175v-84h-175v-416h-92v416h-95v84h95v66q0 69 40.5 118t118.5 49z" />
    <glyph glyph-name="a.001" horiz-adv-x="605" 
d="M530 500v-500h-92v52q-70 -62 -153 -62q-105 0 -177.5 76t-72.5 186t72.5 186.5t177.5 76.5q46 0 87 -18t66 -45v48h92zM292 423q-65 0 -112.5 -45.5t-47.5 -123.5t47.5 -124.5t112.5 -46.5q62 0 105.5 46t43.5 124t-43.5 124t-105.5 46z" />
    <glyph glyph-name="i.loclTRK" horiz-adv-x="255" 
d="M128 683q26 0 44 -18.5t18 -43.5q0 -27 -18 -45t-44 -18q-27 0 -45 18t-18 45q0 26 18 44t45 18zM174 0v500h-92v-500h92z" />
    <glyph glyph-name="one.001" horiz-adv-x="390" 
d="M305 0h-92v532q-1 -2 -4 -9.5t-4 -8.5q-17 -30 -64 -57.5t-85 -34.5l-41 75q76 34 124.5 79.5t73.5 127.5h92v-704z" />
    <glyph glyph-name="one.002" horiz-adv-x="390" 
d="M305 0h-92v524h-188v75q151 -2 208 105h72v-704z" />
    <glyph glyph-name="jungka" horiz-adv-x="600" 
 />
    <glyph glyph-name="jungka.001" horiz-adv-x="600" 
 />
    </font>
</defs>
</svg>
