<svg width="652" height="258" viewBox="0 0 652 258" fill="none" xmlns="http://www.w3.org/2000/svg">
<path d="M117.88 86.44C141.358 86.44 160.39 67.4076 160.39 43.93C160.39 20.4524 141.358 1.41998 117.88 1.41998C94.4024 1.41998 75.37 20.4524 75.37 43.93C75.37 67.4076 94.4024 86.44 117.88 86.44Z" fill="#1E1E1E"/>
<path d="M191.52 128.97C214.998 128.97 234.03 109.938 234.03 86.46C234.03 62.9824 214.998 43.95 191.52 43.95C168.042 43.95 149.01 62.9824 149.01 86.46C149.01 109.938 168.042 128.97 191.52 128.97Z" fill="#FF0000"/>
<path d="M44.23 128.96C67.7076 128.96 86.74 109.928 86.74 86.45C86.74 62.9724 67.7076 43.94 44.23 43.94C20.7524 43.94 1.72 62.9724 1.72 86.45C1.72 109.928 20.7524 128.96 44.23 128.96Z" fill="#1E1E1E"/>
<path d="M191.52 214.01C214.998 214.01 234.03 194.978 234.03 171.5C234.03 148.022 214.998 128.99 191.52 128.99C168.042 128.99 149.01 148.022 149.01 171.5C149.01 194.978 168.042 214.01 191.52 214.01Z" fill="#1E1E1E"/>
<path d="M44.23 214C67.7076 214 86.74 194.968 86.74 171.49C86.74 148.012 67.7076 128.98 44.23 128.98C20.7524 128.98 1.72 148.012 1.72 171.49C1.72 194.968 20.7524 214 44.23 214Z" fill="#1E1E1E"/>
<path d="M117.88 256.53C141.358 256.53 160.39 237.498 160.39 214.02C160.39 190.542 141.358 171.51 117.88 171.51C94.4024 171.51 75.37 190.542 75.37 214.02C75.37 237.498 94.4024 256.53 117.88 256.53Z" fill="#1E1E1E"/>
<path d="M286.92 121.54V43.94H316.26C328.97 43.94 338.32 51.94 338.32 63.61C338.32 71.87 334.84 76.61 329.52 80.02L330.72 79.8C336.04 81.11 343.87 86.21 343.87 97.8C343.87 112.91 331.59 121.49 316.05 121.49L286.92 121.54ZM300.72 56.12V74.59H314C320.52 74.59 325.74 71.98 325.74 65.35C325.74 58.72 320.5 56.11 314 56.11L300.72 56.12ZM300.72 87.42V108.29H318.33C325.07 107.96 329.85 104.81 329.85 97.86C329.85 90.69 324.74 87.75 318.33 87.43L300.72 87.42Z" fill="#1E1E1E"/>
<path d="M409.49 95.35C409.49 96.65 409.38 97.96 409.27 99.26H367.43C368.19 105.89 374.6 111 382.32 111C384.931 110.98 387.503 110.362 389.838 109.194C392.173 108.026 394.209 106.338 395.79 104.26L406.55 109.26C402.31 116.87 393.29 122.85 381.77 122.85C366.23 122.85 353.95 110.46 353.95 94.16C353.95 78.08 365.95 65.58 382.1 65.58C399.16 65.57 409.49 79.26 409.49 95.35ZM367.1 89.59H396.77C395.46 82.42 390.14 77.09 382.2 77.09C374.26 77.09 368.41 82.09 367.1 89.59Z" fill="#1E1E1E"/>
<path d="M474.49 95.35C474.49 96.65 474.38 97.96 474.27 99.26H432.43C433.19 105.89 439.6 111 447.32 111C449.931 110.98 452.503 110.362 454.838 109.194C457.173 108.026 459.209 106.338 460.79 104.26L471.55 109.26C467.31 116.87 458.29 122.85 446.77 122.85C431.23 122.85 418.95 110.46 418.95 94.16C418.95 78.08 430.95 65.58 447.1 65.58C464.16 65.57 474.49 79.26 474.49 95.35ZM432.11 89.59H461.78C460.47 82.42 455.15 77.09 447.21 77.09C439.27 77.09 433.41 82.09 432.11 89.59V89.59Z" fill="#1E1E1E"/>
<path d="M341.26 154L327.26 156.39C325.954 153.338 323.767 150.746 320.979 148.944C318.191 147.143 314.929 146.216 311.61 146.28C304.22 146.28 299.55 149.97 299.55 154.65C299.55 160.3 306.55 162.36 311.39 164.1L319.87 167.04C329.33 170.3 342.69 175.3 342.69 189.97C342.69 204.43 328.89 213.88 314.11 213.88C292.92 213.88 282.59 200.51 279.77 191.38L294.77 188.66C297.38 194.86 304.11 200.72 314.22 200.72C323.13 200.72 328.46 196.16 328.46 190.72C328.46 184.31 321.94 182.24 313.46 179.31L303.57 175.94C293.46 172.46 284.66 166.6 284.66 155.07C284.66 142.07 296.83 132.79 311.5 132.79C325.94 132.78 338.43 141.69 341.26 154Z" fill="#1E1E1E"/>
<path d="M387.09 158.21V168.86H372.2V193.64C372.2 198.64 375.03 201.9 380.2 201.9C382.748 201.901 385.28 201.496 387.7 200.7V211.46C385.96 212.22 382.59 213.74 375.64 213.74C373.472 213.788 371.317 213.396 369.304 212.588C367.292 211.78 365.463 210.573 363.93 209.04C362.397 207.507 361.19 205.678 360.382 203.666C359.574 201.653 359.182 199.498 359.23 197.33L359.12 168.86H349.88V158.21H359.12V144H372.12V158.24L387.09 158.21Z" fill="#1E1E1E"/>
<path d="M431 170.71C429.413 170.536 427.816 170.463 426.22 170.49C422.837 170.516 419.584 171.795 417.09 174.08C413.61 177.34 413.09 181.36 413.09 185.71V212.55H400.59V158.21H413V164.84C417 159.73 422.35 156.58 430.94 156.58L431 170.71Z" fill="#1E1E1E"/>
<path d="M441.51 142C441.508 140.344 441.997 138.725 442.916 137.347C443.834 135.969 445.141 134.895 446.67 134.26C448.199 133.625 449.883 133.458 451.507 133.78C453.131 134.101 454.623 134.898 455.795 136.068C456.967 137.238 457.765 138.73 458.088 140.353C458.412 141.977 458.247 143.661 457.614 145.191C456.981 146.721 455.908 148.029 454.531 148.949C453.155 149.869 451.536 150.36 449.88 150.36C448.779 150.369 447.687 150.16 446.668 149.743C445.649 149.326 444.723 148.711 443.944 147.933C443.165 147.155 442.549 146.23 442.131 145.211C441.713 144.192 441.502 143.101 441.51 142ZM456.51 158.19V212.53H443.36V158.21L456.51 158.19Z" fill="#1E1E1E"/>
<path d="M527.78 185.49C527.78 201.49 517.67 214.07 503.54 214.07C496.54 214.07 491.91 211.9 487.78 207.88V232.44H475.28V158.11H487.78V163.22C492.13 159.22 496.26 157.02 503.54 157.02C517.67 157 527.78 169.51 527.78 185.49ZM487.56 185.6C487.56 195.49 492.67 202.23 501.15 202.23C509.63 202.23 514.09 194.95 514.09 185.71C514.09 175.71 508.87 169.08 501.15 169.08C492.57 169.08 487.57 176.14 487.57 185.6H487.56Z" fill="#1E1E1E"/>
<path d="M593.63 186.36C593.63 187.67 593.52 188.97 593.41 190.27H551.57C552.33 196.9 558.74 202.01 566.46 202.01C569.071 201.991 571.643 201.373 573.978 200.205C576.313 199.037 578.349 197.348 579.93 195.27L590.69 200.27C586.45 207.88 577.43 213.86 565.91 213.86C550.37 213.86 538.09 201.47 538.09 185.17C538.09 169.09 550.09 156.59 566.24 156.59C583.3 156.58 593.63 170.28 593.63 186.36ZM551.25 180.6H580.92C579.61 173.43 574.29 168.1 566.35 168.1C558.41 168.1 552.55 173.1 551.24 180.6H551.25Z" fill="#1E1E1E"/>
<path d="M648.73 171.58L637.43 173.75C635.8 170.81 632.54 167.34 626.02 167.34C621.13 167.34 617.76 169.73 617.76 172.66C617.76 175.92 621.68 177.12 626.45 178.31L632.76 179.94C641.67 182.23 650.26 186.35 650.26 196.35C650.26 207.35 638.41 213.96 627.65 213.85C614.5 213.74 604.94 206.24 601.89 197.22L614.6 194.72C616.89 199.83 622.86 202.66 628.08 202.66C634.28 202.66 637.75 200.05 637.75 196.79C637.75 192.66 631.55 191.36 627.32 190.27L619.93 188.27C613.52 186.53 605.15 182.73 605.15 173.27C605.15 163.05 615.15 156.53 625.91 156.53C638.08 156.58 647 164.3 648.73 171.58Z" fill="#1E1E1E"/>
</svg>
