<svg width="264" height="264" viewBox="0 0 264 264" fill="none" xmlns="http://www.w3.org/2000/svg">
<path d="M132 264C204.902 264 264 204.902 264 132C264 59.0984 204.902 0 132 0C59.0984 0 0 59.0984 0 132C0 204.902 59.0984 264 132 264Z" fill="#FF0000"/>
<path d="M103.2 74.38C103.202 80.0757 104.893 85.6429 108.059 90.3777C111.224 95.1125 115.723 98.8023 120.986 100.981C126.248 103.159 132.039 103.728 137.625 102.615C143.211 101.503 148.341 98.7593 152.368 94.7311C156.395 90.703 159.137 85.5713 160.247 79.9849C161.358 74.3985 160.787 68.6083 158.607 63.3464C156.427 58.0845 152.735 53.5871 147.999 50.423C143.263 47.2588 137.696 45.57 132 45.57C124.362 45.57 117.036 48.6043 111.635 54.0053C106.234 59.4064 103.2 66.7318 103.2 74.37" fill="white"/>
<path d="M153.09 103.19C153.09 108.886 154.779 114.454 157.944 119.19C161.108 123.927 165.606 127.618 170.869 129.798C176.131 131.978 181.922 132.548 187.509 131.437C193.095 130.325 198.227 127.582 202.255 123.555C206.282 119.527 209.025 114.395 210.137 108.809C211.248 103.222 210.677 97.4312 208.498 92.1687C206.318 86.9062 202.627 82.4083 197.89 79.2437C193.154 76.0791 187.586 74.39 181.89 74.39C178.108 74.39 174.363 75.1349 170.869 76.5823C167.375 78.0296 164.2 80.151 161.525 82.8253C158.851 85.4997 156.73 88.6745 155.282 92.1687C153.835 95.6629 153.09 99.4079 153.09 103.19Z" fill="#1E1E1E"/>
<path d="M53.3 103.19C53.3 108.886 54.9891 114.454 58.1537 119.19C61.3182 123.927 65.8162 127.618 71.0787 129.798C76.3412 131.978 82.1319 132.548 87.7186 131.437C93.3052 130.325 98.4369 127.582 102.465 123.555C106.492 119.527 109.235 114.395 110.347 108.809C111.458 103.222 110.888 97.4312 108.708 92.1687C106.528 86.9062 102.837 82.4083 98.1004 79.2437C93.3643 76.0791 87.7961 74.39 82.1 74.39C74.4618 74.39 67.1364 77.4243 61.7353 82.8253C56.3343 88.2264 53.3 95.5518 53.3 103.19" fill="white"/>
<path d="M153.09 160.81C153.092 166.505 154.782 172.072 157.948 176.807C161.113 181.541 165.611 185.231 170.873 187.41C176.135 189.588 181.925 190.158 187.511 189.046C193.097 187.935 198.227 185.192 202.255 181.165C206.282 177.138 209.025 172.007 210.136 166.421C211.248 160.835 210.678 155.045 208.5 149.783C206.321 144.521 202.631 140.023 197.897 136.858C193.162 133.693 187.595 132.002 181.9 132C178.118 132 174.373 132.745 170.879 134.192C167.385 135.64 164.21 137.761 161.535 140.435C158.861 143.11 156.74 146.285 155.292 149.779C153.845 153.273 153.1 157.018 153.1 160.8" fill="white"/>
<path d="M53.3 160.81C53.302 166.506 54.9927 172.073 58.1585 176.808C61.3243 181.543 65.823 185.232 71.0856 187.411C76.3483 189.589 82.1387 190.158 87.7247 189.045C93.3107 187.933 98.4414 185.189 102.468 181.161C106.495 177.133 109.237 172.001 110.347 166.415C111.458 160.829 110.887 155.038 108.707 149.776C106.527 144.514 102.835 140.017 98.0994 136.853C93.3635 133.689 87.7957 132 82.1 132C78.3179 132 74.5729 132.745 71.0787 134.192C67.5845 135.64 64.4096 137.761 61.7353 140.435C59.061 143.11 56.9396 146.285 55.4923 149.779C54.0449 153.273 53.3 157.018 53.3 160.8" fill="white"/>
<path d="M103.2 189.62C103.2 195.316 104.889 200.884 108.054 205.62C111.218 210.357 115.716 214.048 120.979 216.228C126.241 218.408 132.032 218.978 137.619 217.867C143.205 216.755 148.337 214.012 152.365 209.985C156.392 205.957 159.135 200.825 160.247 195.239C161.358 189.652 160.788 183.861 158.608 178.599C156.428 173.336 152.737 168.838 148 165.674C143.264 162.509 137.696 160.82 132 160.82C124.362 160.82 117.036 163.854 111.635 169.255C106.234 174.656 103.2 181.982 103.2 189.62" fill="white"/>
</svg>
